<?xml version="1.0" encoding="UTF-8" standalone="no"?>
<!DOCTYPE svg PUBLIC "-//W3C//DTD SVG 1.1//EN"
 "http://www.w3.org/Graphics/SVG/1.1/DTD/svg11.dtd">
<!-- Generated by graphviz version 12.2.1 (20241206.2353)
 -->
<!-- Title: dependency&#45;cruiser output Pages: 1 -->
<svg width="434pt" height="980pt"
 viewBox="0.00 0.00 433.88 980.00" xmlns="http://www.w3.org/2000/svg" xmlns:xlink="http://www.w3.org/1999/xlink">
<g id="graph0" class="graph" transform="scale(1 1) rotate(0) translate(4 976)">
<title>dependency&#45;cruiser output</title>
<polygon fill="white" stroke="none" points="-4,4 -4,-976 429.88,-976 429.88,4 -4,4"/>
<g id="clust1" class="cluster">
<title>cluster_src</title>
<path fill="#ffffff" stroke="black" stroke-width="2" d="M20,-8C20,-8 405.88,-8 405.88,-8 411.88,-8 417.88,-14 417.88,-20 417.88,-20 417.88,-952 417.88,-952 417.88,-958 411.88,-964 405.88,-964 405.88,-964 20,-964 20,-964 14,-964 8,-958 8,-952 8,-952 8,-20 8,-20 8,-14 14,-8 20,-8"/>
<text text-anchor="middle" x="212.94" y="-951.45" font-family="Helvetica,sans-Serif" font-weight="bold" font-size="9.00">src</text>
</g>
<g id="clust2" class="cluster">
<title>cluster_src/algo</title>
<path fill="#ffffff" stroke="black" stroke-width="2" d="M138.88,-706C138.88,-706 208.38,-706 208.38,-706 214.38,-706 220.38,-712 220.38,-718 220.38,-718 220.38,-926 220.38,-926 220.38,-932 214.38,-938 208.38,-938 208.38,-938 138.88,-938 138.88,-938 132.88,-938 126.88,-932 126.88,-926 126.88,-926 126.88,-718 126.88,-718 126.88,-712 132.88,-706 138.88,-706"/>
<text text-anchor="middle" x="173.62" y="-925.45" font-family="Helvetica,sans-Serif" font-weight="bold" font-size="9.00">algo</text>
</g>
<g id="clust3" class="cluster">
<title>cluster_src/arr</title>
<path fill="#ffffff" stroke="black" stroke-width="2" d="M246,-565C246,-565 305,-565 305,-565 311,-565 317,-571 317,-577 317,-577 317,-845 317,-845 317,-851 311,-857 305,-857 305,-857 246,-857 246,-857 240,-857 234,-851 234,-845 234,-845 234,-577 234,-577 234,-571 240,-565 246,-565"/>
<text text-anchor="middle" x="275.5" y="-844.45" font-family="Helvetica,sans-Serif" font-weight="bold" font-size="9.00">arr</text>
</g>
<g id="clust4" class="cluster">
<title>cluster_src/char</title>
<path fill="#ffffff" stroke="black" stroke-width="2" d="M240.38,-136C240.38,-136 392.12,-136 392.12,-136 398.12,-136 404.12,-142 404.12,-148 404.12,-148 404.12,-296 404.12,-296 404.12,-302 398.12,-308 392.12,-308 392.12,-308 240.38,-308 240.38,-308 234.38,-308 228.38,-302 228.38,-296 228.38,-296 228.38,-148 228.38,-148 228.38,-142 234.38,-136 240.38,-136"/>
<text text-anchor="middle" x="316.25" y="-295.45" font-family="Helvetica,sans-Serif" font-weight="bold" font-size="9.00">char</text>
</g>
<g id="clust5" class="cluster">
<title>cluster_src/convert</title>
<path fill="#ffffff" stroke="black" stroke-width="2" d="M44.62,-76C44.62,-76 90.62,-76 90.62,-76 96.62,-76 102.62,-82 102.62,-88 102.62,-88 102.62,-116 102.62,-116 102.62,-122 96.62,-128 90.62,-128 90.62,-128 44.63,-128 44.63,-128 38.62,-128 32.62,-122 32.62,-116 32.62,-116 32.62,-88 32.62,-88 32.62,-82 38.62,-76 44.62,-76"/>
<text text-anchor="middle" x="67.62" y="-115.45" font-family="Helvetica,sans-Serif" font-weight="bold" font-size="9.00">convert</text>
</g>
<g id="clust6" class="cluster">
<title>cluster_src/fp</title>
<path fill="#ffffff" stroke="black" stroke-width="2" d="M34,-166C34,-166 101.25,-166 101.25,-166 107.25,-166 113.25,-172 113.25,-178 113.25,-178 113.25,-266 113.25,-266 113.25,-272 107.25,-278 101.25,-278 101.25,-278 34,-278 34,-278 28,-278 22,-272 22,-266 22,-266 22,-178 22,-178 22,-172 28,-166 34,-166"/>
<text text-anchor="middle" x="67.62" y="-265.45" font-family="Helvetica,sans-Serif" font-weight="bold" font-size="9.00">fp</text>
</g>
<g id="clust7" class="cluster">
<title>cluster_src/math</title>
<path fill="#ffffff" stroke="black" stroke-width="2" d="M242.62,-316C242.62,-316 308.38,-316 308.38,-316 314.38,-316 320.38,-322 320.38,-328 320.38,-328 320.38,-446 320.38,-446 320.38,-452 314.38,-458 308.38,-458 308.38,-458 242.62,-458 242.62,-458 236.62,-458 230.62,-452 230.62,-446 230.62,-446 230.62,-328 230.62,-328 230.62,-322 236.62,-316 242.62,-316"/>
<text text-anchor="middle" x="275.5" y="-445.45" font-family="Helvetica,sans-Serif" font-weight="bold" font-size="9.00">math</text>
</g>
<g id="clust8" class="cluster">
<title>cluster_src/niche</title>
<path fill="#ffffff" stroke="black" stroke-width="2" d="M28.38,-301C28.38,-301 106.88,-301 106.88,-301 112.88,-301 118.88,-307 118.88,-313 118.88,-313 118.88,-431 118.88,-431 118.88,-437 112.88,-443 106.88,-443 106.88,-443 28.38,-443 28.38,-443 22.38,-443 16.38,-437 16.38,-431 16.38,-431 16.38,-313 16.38,-313 16.38,-307 22.38,-301 28.38,-301"/>
<text text-anchor="middle" x="67.62" y="-430.45" font-family="Helvetica,sans-Serif" font-weight="bold" font-size="9.00">niche</text>
</g>
<g id="clust9" class="cluster">
<title>cluster_src/node</title>
<path fill="#ffffff" stroke="black" stroke-width="2" d="M139.25,-16C139.25,-16 298.5,-16 298.5,-16 304.5,-16 310.5,-22 310.5,-28 310.5,-28 310.5,-116 310.5,-116 310.5,-122 304.5,-128 298.5,-128 298.5,-128 139.25,-128 139.25,-128 133.25,-128 127.25,-122 127.25,-116 127.25,-116 127.25,-28 127.25,-28 127.25,-22 133.25,-16 139.25,-16"/>
<text text-anchor="middle" x="218.88" y="-115.45" font-family="Helvetica,sans-Serif" font-weight="bold" font-size="9.00">node</text>
</g>
<g id="clust10" class="cluster">
<title>cluster_src/obj</title>
<path fill="#ffffff" stroke="black" stroke-width="2" d="M340.38,-316C340.38,-316 397.88,-316 397.88,-316 403.88,-316 409.88,-322 409.88,-328 409.88,-328 409.88,-596 409.88,-596 409.88,-602 403.88,-608 397.88,-608 397.88,-608 340.38,-608 340.38,-608 334.38,-608 328.38,-602 328.38,-596 328.38,-596 328.38,-328 328.38,-328 328.38,-322 334.38,-316 340.38,-316"/>
<text text-anchor="middle" x="369.12" y="-595.45" font-family="Helvetica,sans-Serif" font-weight="bold" font-size="9.00">obj</text>
</g>
<g id="clust11" class="cluster">
<title>cluster_src/rand</title>
<path fill="#ffffff" stroke="black" stroke-width="2" d="M150.12,-136C150.12,-136 197.12,-136 197.12,-136 203.12,-136 209.12,-142 209.12,-148 209.12,-148 209.12,-326 209.12,-326 209.12,-332 203.12,-338 197.12,-338 197.12,-338 150.12,-338 150.12,-338 144.12,-338 138.12,-332 138.12,-326 138.12,-326 138.12,-148 138.12,-148 138.12,-142 144.12,-136 150.12,-136"/>
<text text-anchor="middle" x="173.62" y="-325.45" font-family="Helvetica,sans-Serif" font-weight="bold" font-size="9.00">rand</text>
</g>
<g id="clust12" class="cluster">
<title>cluster_src/str</title>
<path fill="#ffffff" stroke="black" stroke-width="2" d="M147.12,-346C147.12,-346 200.12,-346 200.12,-346 206.12,-346 212.12,-352 212.12,-358 212.12,-358 212.12,-536 212.12,-536 212.12,-542 206.12,-548 200.12,-548 200.12,-548 147.12,-548 147.12,-548 141.12,-548 135.12,-542 135.12,-536 135.12,-536 135.12,-358 135.12,-358 135.12,-352 141.12,-346 147.12,-346"/>
<text text-anchor="middle" x="173.62" y="-535.45" font-family="Helvetica,sans-Serif" font-weight="bold" font-size="9.00">str</text>
</g>
<g id="clust13" class="cluster">
<title>cluster_src/template</title>
<path fill="#ffffff" stroke="black" stroke-width="2" d="M44.62,-458C44.62,-458 90.62,-458 90.62,-458 96.62,-458 102.62,-464 102.62,-470 102.62,-470 102.62,-528 102.62,-528 102.62,-534 96.62,-540 90.62,-540 90.62,-540 44.63,-540 44.63,-540 38.62,-540 32.62,-534 32.62,-528 32.62,-528 32.62,-470 32.62,-470 32.62,-464 38.62,-458 44.62,-458"/>
<text text-anchor="middle" x="67.62" y="-527.45" font-family="Helvetica,sans-Serif" font-weight="bold" font-size="9.00">template</text>
</g>
<g id="clust14" class="cluster">
<title>cluster_src/time</title>
<path fill="#ffffff" stroke="black" stroke-width="2" d="M28,-556C28,-556 201.62,-556 201.62,-556 207.62,-556 213.62,-562 213.62,-568 213.62,-568 213.62,-686 213.62,-686 213.62,-692 207.62,-698 201.62,-698 201.62,-698 28,-698 28,-698 22,-698 16,-692 16,-686 16,-686 16,-568 16,-568 16,-562 22,-556 28,-556"/>
<text text-anchor="middle" x="114.81" y="-685.45" font-family="Helvetica,sans-Serif" font-weight="bold" font-size="9.00">time</text>
</g>
<!-- src/algo/binSearch.ts -->
<g id="node1" class="node">
<title>src/algo/binSearch.ts</title>
<g id="a_node1"><a xlink:href="src/algo/binSearch.ts" xlink:title="no&#45;orphans">
<path fill="#ccffcc" stroke="blue" d="M201.21,-731.88C201.21,-731.88 146.04,-731.88 146.04,-731.88 143.08,-731.88 140.12,-728.92 140.12,-725.96 140.12,-725.96 140.12,-720.04 140.12,-720.04 140.12,-717.08 143.08,-714.12 146.04,-714.12 146.04,-714.12 201.21,-714.12 201.21,-714.12 204.17,-714.12 207.12,-717.08 207.12,-720.04 207.12,-720.04 207.12,-725.96 207.12,-725.96 207.12,-728.92 204.17,-731.88 201.21,-731.88"/>
<text text-anchor="start" x="148.12" y="-719.33" font-family="Helvetica,sans-Serif" font-size="9.00" fill="blue">binSearch.ts</text>
</a>
</g>
</g>
<!-- src/algo/defrag.ts -->
<g id="node2" class="node">
<title>src/algo/defrag.ts</title>
<g id="a_node2"><a xlink:href="src/algo/defrag.ts" xlink:title="no&#45;orphans">
<path fill="#ccffcc" stroke="blue" d="M194.71,-761.88C194.71,-761.88 152.54,-761.88 152.54,-761.88 149.58,-761.88 146.62,-758.92 146.62,-755.96 146.62,-755.96 146.62,-750.04 146.62,-750.04 146.62,-747.08 149.58,-744.12 152.54,-744.12 152.54,-744.12 194.71,-744.12 194.71,-744.12 197.67,-744.12 200.62,-747.08 200.62,-750.04 200.62,-750.04 200.62,-755.96 200.62,-755.96 200.62,-758.92 197.67,-761.88 194.71,-761.88"/>
<text text-anchor="start" x="156" y="-749.33" font-family="Helvetica,sans-Serif" font-size="9.00" fill="blue">defrag.ts</text>
</a>
</g>
</g>
<!-- src/algo/greedy.ts -->
<g id="node3" class="node">
<title>src/algo/greedy.ts</title>
<g id="a_node3"><a xlink:href="src/algo/greedy.ts" xlink:title="greedy.ts">
<path fill="#ddfeff" stroke="black" d="M194.71,-791.88C194.71,-791.88 152.54,-791.88 152.54,-791.88 149.58,-791.88 146.62,-788.92 146.62,-785.96 146.62,-785.96 146.62,-780.04 146.62,-780.04 146.62,-777.08 149.58,-774.12 152.54,-774.12 152.54,-774.12 194.71,-774.12 194.71,-774.12 197.67,-774.12 200.62,-777.08 200.62,-780.04 200.62,-780.04 200.62,-785.96 200.62,-785.96 200.62,-788.92 197.67,-791.88 194.71,-791.88"/>
<text text-anchor="start" x="154.88" y="-779.33" font-family="Helvetica,sans-Serif" font-size="9.00">greedy.ts</text>
</a>
</g>
</g>
<!-- src/algo/outscape.ts -->
<g id="node4" class="node">
<title>src/algo/outscape.ts</title>
<g id="a_node4"><a xlink:href="src/algo/outscape.ts" xlink:title="no&#45;orphans">
<path fill="#ccffcc" stroke="blue" d="M198.96,-821.88C198.96,-821.88 148.29,-821.88 148.29,-821.88 145.33,-821.88 142.38,-818.92 142.38,-815.96 142.38,-815.96 142.38,-810.04 142.38,-810.04 142.38,-807.08 145.33,-804.12 148.29,-804.12 148.29,-804.12 198.96,-804.12 198.96,-804.12 201.92,-804.12 204.88,-807.08 204.88,-810.04 204.88,-810.04 204.88,-815.96 204.88,-815.96 204.88,-818.92 201.92,-821.88 198.96,-821.88"/>
<text text-anchor="start" x="150.38" y="-809.33" font-family="Helvetica,sans-Serif" font-size="9.00" fill="blue">outscape.ts</text>
</a>
</g>
</g>
<!-- src/algo/permutation.ts -->
<g id="node5" class="node">
<title>src/algo/permutation.ts</title>
<g id="a_node5"><a xlink:href="src/algo/permutation.ts" xlink:title="no&#45;orphans">
<path fill="#ccffcc" stroke="blue" d="M204.58,-851.88C204.58,-851.88 142.67,-851.88 142.67,-851.88 139.71,-851.88 136.75,-848.92 136.75,-845.96 136.75,-845.96 136.75,-840.04 136.75,-840.04 136.75,-837.08 139.71,-834.12 142.67,-834.12 142.67,-834.12 204.58,-834.12 204.58,-834.12 207.54,-834.12 210.5,-837.08 210.5,-840.04 210.5,-840.04 210.5,-845.96 210.5,-845.96 210.5,-848.92 207.54,-851.88 204.58,-851.88"/>
<text text-anchor="start" x="144.75" y="-839.33" font-family="Helvetica,sans-Serif" font-size="9.00" fill="blue">permutation.ts</text>
</a>
</g>
</g>
<!-- src/algo/queueMerge.ts -->
<g id="node6" class="node">
<title>src/algo/queueMerge.ts</title>
<g id="a_node6"><a xlink:href="src/algo/queueMerge.ts" xlink:title="no&#45;orphans">
<path fill="#ccffcc" stroke="blue" d="M206.46,-881.88C206.46,-881.88 140.79,-881.88 140.79,-881.88 137.83,-881.88 134.88,-878.92 134.88,-875.96 134.88,-875.96 134.88,-870.04 134.88,-870.04 134.88,-867.08 137.83,-864.12 140.79,-864.12 140.79,-864.12 206.46,-864.12 206.46,-864.12 209.42,-864.12 212.38,-867.08 212.38,-870.04 212.38,-870.04 212.38,-875.96 212.38,-875.96 212.38,-878.92 209.42,-881.88 206.46,-881.88"/>
<text text-anchor="start" x="142.88" y="-869.33" font-family="Helvetica,sans-Serif" font-size="9.00" fill="blue">queueMerge.ts</text>
</a>
</g>
</g>
<!-- src/algo/rowspan.ts -->
<g id="node7" class="node">
<title>src/algo/rowspan.ts</title>
<g id="a_node7"><a xlink:href="src/algo/rowspan.ts" xlink:title="rowspan.ts">
<path fill="#ddfeff" stroke="black" d="M197.83,-911.88C197.83,-911.88 149.42,-911.88 149.42,-911.88 146.46,-911.88 143.5,-908.92 143.5,-905.96 143.5,-905.96 143.5,-900.04 143.5,-900.04 143.5,-897.08 146.46,-894.12 149.42,-894.12 149.42,-894.12 197.83,-894.12 197.83,-894.12 200.79,-894.12 203.75,-897.08 203.75,-900.04 203.75,-900.04 203.75,-905.96 203.75,-905.96 203.75,-908.92 200.79,-911.88 197.83,-911.88"/>
<text text-anchor="start" x="151.5" y="-899.33" font-family="Helvetica,sans-Serif" font-size="9.00">rowspan.ts</text>
</a>
</g>
</g>
<!-- src/arr/windowed.ts -->
<g id="node8" class="node">
<title>src/arr/windowed.ts</title>
<g id="a_node8"><a xlink:href="src/arr/windowed.ts" xlink:title="windowed.ts">
<path fill="#ddfeff" stroke="black" d="M303.08,-710.88C303.08,-710.88 247.92,-710.88 247.92,-710.88 244.96,-710.88 242,-707.92 242,-704.96 242,-704.96 242,-699.04 242,-699.04 242,-696.08 244.96,-693.12 247.92,-693.12 247.92,-693.12 303.08,-693.12 303.08,-693.12 306.04,-693.12 309,-696.08 309,-699.04 309,-699.04 309,-704.96 309,-704.96 309,-707.92 306.04,-710.88 303.08,-710.88"/>
<text text-anchor="start" x="250" y="-698.33" font-family="Helvetica,sans-Serif" font-size="9.00">windowed.ts</text>
</a>
</g>
</g>
<!-- src/algo/rowspan.ts&#45;&gt;src/arr/windowed.ts -->
<g id="edge1" class="edge">
<title>src/algo/rowspan.ts&#45;&gt;src/arr/windowed.ts</title>
<path fill="none" stroke="#000000" stroke-width="2" stroke-opacity="0.200000" d="M204.02,-899.03C210.34,-896.78 216.33,-893.32 220.38,-888 243.41,-857.72 205.31,-747.25 228.38,-717 229.95,-714.93 231.83,-713.14 233.9,-711.59"/>
<polygon fill="#000000" fill-opacity="0.200000" stroke="#000000" stroke-width="2" stroke-opacity="0.200000" points="234.76,-713.52 238.93,-708.72 232.68,-709.87 234.76,-713.52"/>
</g>
<!-- src/arr/chunk.ts -->
<g id="node9" class="node">
<title>src/arr/chunk.ts</title>
<g id="a_node9"><a xlink:href="src/arr/chunk.ts" xlink:title="no&#45;orphans">
<path fill="#ccffcc" stroke="blue" d="M296.58,-620.88C296.58,-620.88 254.42,-620.88 254.42,-620.88 251.46,-620.88 248.5,-617.92 248.5,-614.96 248.5,-614.96 248.5,-609.04 248.5,-609.04 248.5,-606.08 251.46,-603.12 254.42,-603.12 254.42,-603.12 296.58,-603.12 296.58,-603.12 299.54,-603.12 302.5,-606.08 302.5,-609.04 302.5,-609.04 302.5,-614.96 302.5,-614.96 302.5,-617.92 299.54,-620.88 296.58,-620.88"/>
<text text-anchor="start" x="258.62" y="-608.33" font-family="Helvetica,sans-Serif" font-size="9.00" fill="blue">chunk.ts</text>
</a>
</g>
</g>
<!-- src/arr/last.ts -->
<g id="node10" class="node">
<title>src/arr/last.ts</title>
<g id="a_node10"><a xlink:href="src/arr/last.ts" xlink:title="no&#45;orphans">
<path fill="#ccffcc" stroke="blue" d="M296.58,-650.88C296.58,-650.88 254.42,-650.88 254.42,-650.88 251.46,-650.88 248.5,-647.92 248.5,-644.96 248.5,-644.96 248.5,-639.04 248.5,-639.04 248.5,-636.08 251.46,-633.12 254.42,-633.12 254.42,-633.12 296.58,-633.12 296.58,-633.12 299.54,-633.12 302.5,-636.08 302.5,-639.04 302.5,-639.04 302.5,-644.96 302.5,-644.96 302.5,-647.92 299.54,-650.88 296.58,-650.88"/>
<text text-anchor="start" x="263.88" y="-638.33" font-family="Helvetica,sans-Serif" font-size="9.00" fill="blue">last.ts</text>
</a>
</g>
</g>
<!-- src/arr/maxBy.ts -->
<g id="node11" class="node">
<title>src/arr/maxBy.ts</title>
<g id="a_node11"><a xlink:href="src/arr/maxBy.ts" xlink:title="no&#45;orphans">
<path fill="#ccffcc" stroke="blue" d="M296.58,-680.88C296.58,-680.88 254.42,-680.88 254.42,-680.88 251.46,-680.88 248.5,-677.92 248.5,-674.96 248.5,-674.96 248.5,-669.04 248.5,-669.04 248.5,-666.08 251.46,-663.12 254.42,-663.12 254.42,-663.12 296.58,-663.12 296.58,-663.12 299.54,-663.12 302.5,-666.08 302.5,-669.04 302.5,-669.04 302.5,-674.96 302.5,-674.96 302.5,-677.92 299.54,-680.88 296.58,-680.88"/>
<text text-anchor="start" x="257.12" y="-668.33" font-family="Helvetica,sans-Serif" font-size="9.00" fill="blue">maxBy.ts</text>
</a>
</g>
</g>
<!-- src/arr/range.ts -->
<g id="node12" class="node">
<title>src/arr/range.ts</title>
<g id="a_node12"><a xlink:href="src/arr/range.ts" xlink:title="range.ts">
<path fill="#ddfeff" stroke="black" d="M296.58,-590.88C296.58,-590.88 254.42,-590.88 254.42,-590.88 251.46,-590.88 248.5,-587.92 248.5,-584.96 248.5,-584.96 248.5,-579.04 248.5,-579.04 248.5,-576.08 251.46,-573.12 254.42,-573.12 254.42,-573.12 296.58,-573.12 296.58,-573.12 299.54,-573.12 302.5,-576.08 302.5,-579.04 302.5,-579.04 302.5,-584.96 302.5,-584.96 302.5,-587.92 299.54,-590.88 296.58,-590.88"/>
<text text-anchor="start" x="259" y="-578.33" font-family="Helvetica,sans-Serif" font-size="9.00">range.ts</text>
</a>
</g>
</g>
<!-- src/arr/rangeAdv.ts -->
<g id="node13" class="node">
<title>src/arr/rangeAdv.ts</title>
<g id="a_node13"><a xlink:href="src/arr/rangeAdv.ts" xlink:title="no&#45;orphans">
<path fill="#ccffcc" stroke="blue" d="M301.96,-740.88C301.96,-740.88 249.04,-740.88 249.04,-740.88 246.08,-740.88 243.12,-737.92 243.12,-734.96 243.12,-734.96 243.12,-729.04 243.12,-729.04 243.12,-726.08 246.08,-723.12 249.04,-723.12 249.04,-723.12 301.96,-723.12 301.96,-723.12 304.92,-723.12 307.88,-726.08 307.88,-729.04 307.88,-729.04 307.88,-734.96 307.88,-734.96 307.88,-737.92 304.92,-740.88 301.96,-740.88"/>
<text text-anchor="start" x="251.12" y="-728.33" font-family="Helvetica,sans-Serif" font-size="9.00" fill="blue">rangeAdv.ts</text>
</a>
</g>
</g>
<!-- src/arr/sortBy.ts -->
<g id="node14" class="node">
<title>src/arr/sortBy.ts</title>
<g id="a_node14"><a xlink:href="src/arr/sortBy.ts" xlink:title="no&#45;orphans">
<path fill="#ccffcc" stroke="blue" d="M296.58,-770.88C296.58,-770.88 254.42,-770.88 254.42,-770.88 251.46,-770.88 248.5,-767.92 248.5,-764.96 248.5,-764.96 248.5,-759.04 248.5,-759.04 248.5,-756.08 251.46,-753.12 254.42,-753.12 254.42,-753.12 296.58,-753.12 296.58,-753.12 299.54,-753.12 302.5,-756.08 302.5,-759.04 302.5,-759.04 302.5,-764.96 302.5,-764.96 302.5,-767.92 299.54,-770.88 296.58,-770.88"/>
<text text-anchor="start" x="258.25" y="-758.33" font-family="Helvetica,sans-Serif" font-size="9.00" fill="blue">sortBy.ts</text>
</a>
</g>
</g>
<!-- src/arr/transpose.ts -->
<g id="node15" class="node">
<title>src/arr/transpose.ts</title>
<g id="a_node15"><a xlink:href="src/arr/transpose.ts" xlink:title="no&#45;orphans">
<path fill="#ccffcc" stroke="blue" d="M302.33,-800.88C302.33,-800.88 248.67,-800.88 248.67,-800.88 245.71,-800.88 242.75,-797.92 242.75,-794.96 242.75,-794.96 242.75,-789.04 242.75,-789.04 242.75,-786.08 245.71,-783.12 248.67,-783.12 248.67,-783.12 302.33,-783.12 302.33,-783.12 305.29,-783.12 308.25,-786.08 308.25,-789.04 308.25,-789.04 308.25,-794.96 308.25,-794.96 308.25,-797.92 305.29,-800.88 302.33,-800.88"/>
<text text-anchor="start" x="250.75" y="-788.33" font-family="Helvetica,sans-Serif" font-size="9.00" fill="blue">transpose.ts</text>
</a>
</g>
</g>
<!-- src/arr/uniq.ts -->
<g id="node16" class="node">
<title>src/arr/uniq.ts</title>
<g id="a_node16"><a xlink:href="src/arr/uniq.ts" xlink:title="no&#45;orphans">
<path fill="#ccffcc" stroke="blue" d="M296.58,-830.88C296.58,-830.88 254.42,-830.88 254.42,-830.88 251.46,-830.88 248.5,-827.92 248.5,-824.96 248.5,-824.96 248.5,-819.04 248.5,-819.04 248.5,-816.08 251.46,-813.12 254.42,-813.12 254.42,-813.12 296.58,-813.12 296.58,-813.12 299.54,-813.12 302.5,-816.08 302.5,-819.04 302.5,-819.04 302.5,-824.96 302.5,-824.96 302.5,-827.92 299.54,-830.88 296.58,-830.88"/>
<text text-anchor="start" x="262" y="-818.33" font-family="Helvetica,sans-Serif" font-size="9.00" fill="blue">uniq.ts</text>
</a>
</g>
</g>
<!-- src/char/ascii.ts -->
<g id="node17" class="node">
<title>src/char/ascii.ts</title>
<g id="a_node17"><a xlink:href="src/char/ascii.ts" xlink:title="ascii.ts">
<path fill="#ddfeff" stroke="black" d="M296.58,-281.88C296.58,-281.88 254.42,-281.88 254.42,-281.88 251.46,-281.88 248.5,-278.92 248.5,-275.96 248.5,-275.96 248.5,-270.04 248.5,-270.04 248.5,-267.08 251.46,-264.12 254.42,-264.12 254.42,-264.12 296.58,-264.12 296.58,-264.12 299.54,-264.12 302.5,-267.08 302.5,-270.04 302.5,-270.04 302.5,-275.96 302.5,-275.96 302.5,-278.92 299.54,-281.88 296.58,-281.88"/>
<text text-anchor="start" x="261.62" y="-269.32" font-family="Helvetica,sans-Serif" font-size="9.00">ascii.ts</text>
</a>
</g>
</g>
<!-- src/obj/keyBy.ts -->
<g id="node18" class="node">
<title>src/obj/keyBy.ts</title>
<g id="a_node18"><a xlink:href="src/obj/keyBy.ts" xlink:title="keyBy.ts">
<path fill="#ddfeff" stroke="black" d="M390.21,-341.88C390.21,-341.88 348.04,-341.88 348.04,-341.88 345.08,-341.88 342.12,-338.92 342.12,-335.96 342.12,-335.96 342.12,-330.04 342.12,-330.04 342.12,-327.08 345.08,-324.12 348.04,-324.12 348.04,-324.12 390.21,-324.12 390.21,-324.12 393.17,-324.12 396.12,-327.08 396.12,-330.04 396.12,-330.04 396.12,-335.96 396.12,-335.96 396.12,-338.92 393.17,-341.88 390.21,-341.88"/>
<text text-anchor="start" x="352.25" y="-329.32" font-family="Helvetica,sans-Serif" font-size="9.00">keyBy.ts</text>
</a>
</g>
</g>
<!-- src/char/ascii.ts&#45;&gt;src/obj/keyBy.ts -->
<g id="edge2" class="edge">
<title>src/char/ascii.ts&#45;&gt;src/obj/keyBy.ts</title>
<path fill="none" stroke="#000000" stroke-width="2" stroke-opacity="0.200000" d="M288.15,-282.19C298.47,-290.18 314.08,-301.86 328.38,-311 332.89,-313.89 337.8,-316.79 342.59,-319.5"/>
<polygon fill="#000000" fill-opacity="0.200000" stroke="#000000" stroke-width="2" stroke-opacity="0.200000" points="341.52,-321.3 347.78,-322.37 343.55,-317.63 341.52,-321.3"/>
</g>
<!-- src/char/bom.ts -->
<g id="node19" class="node">
<title>src/char/bom.ts</title>
<g id="a_node19"><a xlink:href="src/char/bom.ts" xlink:title="no&#45;orphans">
<path fill="#ccffcc" stroke="blue" d="M296.58,-191.88C296.58,-191.88 254.42,-191.88 254.42,-191.88 251.46,-191.88 248.5,-188.92 248.5,-185.96 248.5,-185.96 248.5,-180.04 248.5,-180.04 248.5,-177.08 251.46,-174.12 254.42,-174.12 254.42,-174.12 296.58,-174.12 296.58,-174.12 299.54,-174.12 302.5,-177.08 302.5,-180.04 302.5,-180.04 302.5,-185.96 302.5,-185.96 302.5,-188.92 299.54,-191.88 296.58,-191.88"/>
<text text-anchor="start" x="262" y="-179.32" font-family="Helvetica,sans-Serif" font-size="9.00" fill="blue">bom.ts</text>
</a>
</g>
</g>
<!-- src/char/constants.ts -->
<g id="node20" class="node">
<title>src/char/constants.ts</title>
<g id="a_node20"><a xlink:href="src/char/constants.ts" xlink:title="constants.ts">
<path fill="#ddfeff" stroke="black" d="M301.58,-221.88C301.58,-221.88 249.42,-221.88 249.42,-221.88 246.46,-221.88 243.5,-218.92 243.5,-215.96 243.5,-215.96 243.5,-210.04 243.5,-210.04 243.5,-207.08 246.46,-204.12 249.42,-204.12 249.42,-204.12 301.58,-204.12 301.58,-204.12 304.54,-204.12 307.5,-207.08 307.5,-210.04 307.5,-210.04 307.5,-215.96 307.5,-215.96 307.5,-218.92 304.54,-221.88 301.58,-221.88"/>
<text text-anchor="start" x="251.5" y="-209.32" font-family="Helvetica,sans-Serif" font-size="9.00">constants.ts</text>
</a>
</g>
</g>
<!-- src/char/romanization.ts -->
<g id="node21" class="node">
<title>src/char/romanization.ts</title>
<g id="a_node21"><a xlink:href="src/char/romanization.ts" xlink:title="no&#45;orphans">
<path fill="#ccffcc" stroke="blue" d="M308.71,-251.88C308.71,-251.88 242.29,-251.88 242.29,-251.88 239.33,-251.88 236.38,-248.92 236.38,-245.96 236.38,-245.96 236.38,-240.04 236.38,-240.04 236.38,-237.08 239.33,-234.12 242.29,-234.12 242.29,-234.12 308.71,-234.12 308.71,-234.12 311.67,-234.12 314.62,-237.08 314.62,-240.04 314.62,-240.04 314.62,-245.96 314.62,-245.96 314.62,-248.92 311.67,-251.88 308.71,-251.88"/>
<text text-anchor="start" x="244.38" y="-239.32" font-family="Helvetica,sans-Serif" font-size="9.00" fill="blue">romanization.ts</text>
</a>
</g>
</g>
<!-- src/char/shift.ts -->
<g id="node22" class="node">
<title>src/char/shift.ts</title>
<g id="a_node22"><a xlink:href="src/char/shift.ts" xlink:title="shift.ts">
<path fill="#ddfeff" stroke="black" d="M390.21,-161.88C390.21,-161.88 348.04,-161.88 348.04,-161.88 345.08,-161.88 342.12,-158.92 342.12,-155.96 342.12,-155.96 342.12,-150.04 342.12,-150.04 342.12,-147.08 345.08,-144.12 348.04,-144.12 348.04,-144.12 390.21,-144.12 390.21,-144.12 393.17,-144.12 396.12,-147.08 396.12,-150.04 396.12,-150.04 396.12,-155.96 396.12,-155.96 396.12,-158.92 393.17,-161.88 390.21,-161.88"/>
<text text-anchor="start" x="356.38" y="-149.32" font-family="Helvetica,sans-Serif" font-size="9.00">shift.ts</text>
</a>
</g>
</g>
<!-- src/char/width.ts -->
<g id="node23" class="node">
<title>src/char/width.ts</title>
<g id="a_node23"><a xlink:href="src/char/width.ts" xlink:title="width.ts">
<path fill="#ddfeff" stroke="black" d="M296.58,-161.88C296.58,-161.88 254.42,-161.88 254.42,-161.88 251.46,-161.88 248.5,-158.92 248.5,-155.96 248.5,-155.96 248.5,-150.04 248.5,-150.04 248.5,-147.08 251.46,-144.12 254.42,-144.12 254.42,-144.12 296.58,-144.12 296.58,-144.12 299.54,-144.12 302.5,-147.08 302.5,-150.04 302.5,-150.04 302.5,-155.96 302.5,-155.96 302.5,-158.92 299.54,-161.88 296.58,-161.88"/>
<text text-anchor="start" x="260.12" y="-149.32" font-family="Helvetica,sans-Serif" font-size="9.00">width.ts</text>
</a>
</g>
</g>
<!-- src/char/width.ts&#45;&gt;src/char/shift.ts -->
<g id="edge3" class="edge">
<title>src/char/width.ts&#45;&gt;src/char/shift.ts</title>
<path fill="none" stroke="#000000" stroke-width="2" stroke-opacity="0.200000" d="M302.51,-153C311.91,-153 322.68,-153 332.75,-153"/>
<polygon fill="#000000" fill-opacity="0.200000" stroke="#000000" stroke-width="2" stroke-opacity="0.200000" points="332.7,-155.1 338.7,-153 332.7,-150.9 332.7,-155.1"/>
</g>
<!-- src/convert/binary.ts -->
<g id="node24" class="node">
<title>src/convert/binary.ts</title>
<g id="a_node24"><a xlink:href="src/convert/binary.ts" xlink:title="no&#45;orphans">
<path fill="#ccffcc" stroke="blue" d="M88.71,-101.88C88.71,-101.88 46.54,-101.88 46.54,-101.88 43.58,-101.88 40.62,-98.92 40.62,-95.96 40.62,-95.96 40.62,-90.04 40.62,-90.04 40.62,-87.08 43.58,-84.12 46.54,-84.12 46.54,-84.12 88.71,-84.12 88.71,-84.12 91.67,-84.12 94.62,-87.08 94.62,-90.04 94.62,-90.04 94.62,-95.96 94.62,-95.96 94.62,-98.92 91.67,-101.88 88.71,-101.88"/>
<text text-anchor="start" x="50.38" y="-89.33" font-family="Helvetica,sans-Serif" font-size="9.00" fill="blue">binary.ts</text>
</a>
</g>
</g>
<!-- src/fp/identity.ts -->
<g id="node25" class="node">
<title>src/fp/identity.ts</title>
<g id="a_node25"><a xlink:href="src/fp/identity.ts" xlink:title="no&#45;orphans">
<path fill="#ccffcc" stroke="blue" d="M88.83,-191.88C88.83,-191.88 46.42,-191.88 46.42,-191.88 43.46,-191.88 40.5,-188.92 40.5,-185.96 40.5,-185.96 40.5,-180.04 40.5,-180.04 40.5,-177.08 43.46,-174.12 46.42,-174.12 46.42,-174.12 88.83,-174.12 88.83,-174.12 91.79,-174.12 94.75,-177.08 94.75,-180.04 94.75,-180.04 94.75,-185.96 94.75,-185.96 94.75,-188.92 91.79,-191.88 88.83,-191.88"/>
<text text-anchor="start" x="48.5" y="-179.32" font-family="Helvetica,sans-Serif" font-size="9.00" fill="blue">identity.ts</text>
</a>
</g>
</g>
<!-- src/fp/makeToggle.ts -->
<g id="node26" class="node">
<title>src/fp/makeToggle.ts</title>
<g id="a_node26"><a xlink:href="src/fp/makeToggle.ts" xlink:title="no&#45;orphans">
<path fill="#ccffcc" stroke="blue" d="M99.33,-221.88C99.33,-221.88 35.92,-221.88 35.92,-221.88 32.96,-221.88 30,-218.92 30,-215.96 30,-215.96 30,-210.04 30,-210.04 30,-207.08 32.96,-204.12 35.92,-204.12 35.92,-204.12 99.33,-204.12 99.33,-204.12 102.29,-204.12 105.25,-207.08 105.25,-210.04 105.25,-210.04 105.25,-215.96 105.25,-215.96 105.25,-218.92 102.29,-221.88 99.33,-221.88"/>
<text text-anchor="start" x="38" y="-209.32" font-family="Helvetica,sans-Serif" font-size="9.00" fill="blue">makeToggle.ts</text>
</a>
</g>
</g>
<!-- src/fp/noop.ts -->
<g id="node27" class="node">
<title>src/fp/noop.ts</title>
<g id="a_node27"><a xlink:href="src/fp/noop.ts" xlink:title="no&#45;orphans">
<path fill="#ccffcc" stroke="blue" d="M88.71,-251.88C88.71,-251.88 46.54,-251.88 46.54,-251.88 43.58,-251.88 40.62,-248.92 40.62,-245.96 40.62,-245.96 40.62,-240.04 40.62,-240.04 40.62,-237.08 43.58,-234.12 46.54,-234.12 46.54,-234.12 88.71,-234.12 88.71,-234.12 91.67,-234.12 94.62,-237.08 94.62,-240.04 94.62,-240.04 94.62,-245.96 94.62,-245.96 94.62,-248.92 91.67,-251.88 88.71,-251.88"/>
<text text-anchor="start" x="52.62" y="-239.32" font-family="Helvetica,sans-Serif" font-size="9.00" fill="blue">noop.ts</text>
</a>
</g>
</g>
<!-- src/math/clamp.ts -->
<g id="node28" class="node">
<title>src/math/clamp.ts</title>
<g id="a_node28"><a xlink:href="src/math/clamp.ts" xlink:title="no&#45;orphans">
<path fill="#ccffcc" stroke="blue" d="M296.58,-341.88C296.58,-341.88 254.42,-341.88 254.42,-341.88 251.46,-341.88 248.5,-338.92 248.5,-335.96 248.5,-335.96 248.5,-330.04 248.5,-330.04 248.5,-327.08 251.46,-324.12 254.42,-324.12 254.42,-324.12 296.58,-324.12 296.58,-324.12 299.54,-324.12 302.5,-327.08 302.5,-330.04 302.5,-330.04 302.5,-335.96 302.5,-335.96 302.5,-338.92 299.54,-341.88 296.58,-341.88"/>
<text text-anchor="start" x="258.62" y="-329.32" font-family="Helvetica,sans-Serif" font-size="9.00" fill="blue">clamp.ts</text>
</a>
</g>
</g>
<!-- src/math/cycleRange.ts -->
<g id="node29" class="node">
<title>src/math/cycleRange.ts</title>
<g id="a_node29"><a xlink:href="src/math/cycleRange.ts" xlink:title="no&#45;orphans">
<path fill="#ccffcc" stroke="blue" d="M306.46,-371.88C306.46,-371.88 244.54,-371.88 244.54,-371.88 241.58,-371.88 238.62,-368.92 238.62,-365.96 238.62,-365.96 238.62,-360.04 238.62,-360.04 238.62,-357.08 241.58,-354.12 244.54,-354.12 244.54,-354.12 306.46,-354.12 306.46,-354.12 309.42,-354.12 312.38,-357.08 312.38,-360.04 312.38,-360.04 312.38,-365.96 312.38,-365.96 312.38,-368.92 309.42,-371.88 306.46,-371.88"/>
<text text-anchor="start" x="246.62" y="-359.32" font-family="Helvetica,sans-Serif" font-size="9.00" fill="blue">cycleRange.ts</text>
</a>
</g>
</g>
<!-- src/math/diffwrap.ts -->
<g id="node30" class="node">
<title>src/math/diffwrap.ts</title>
<g id="a_node30"><a xlink:href="src/math/diffwrap.ts" xlink:title="no&#45;orphans">
<path fill="#ccffcc" stroke="blue" d="M298.21,-401.88C298.21,-401.88 252.79,-401.88 252.79,-401.88 249.83,-401.88 246.88,-398.92 246.88,-395.96 246.88,-395.96 246.88,-390.04 246.88,-390.04 246.88,-387.08 249.83,-384.12 252.79,-384.12 252.79,-384.12 298.21,-384.12 298.21,-384.12 301.17,-384.12 304.12,-387.08 304.12,-390.04 304.12,-390.04 304.12,-395.96 304.12,-395.96 304.12,-398.92 301.17,-401.88 298.21,-401.88"/>
<text text-anchor="start" x="254.88" y="-389.32" font-family="Helvetica,sans-Serif" font-size="9.00" fill="blue">diffwrap.ts</text>
</a>
</g>
</g>
<!-- src/math/radix.ts -->
<g id="node31" class="node">
<title>src/math/radix.ts</title>
<g id="a_node31"><a xlink:href="src/math/radix.ts" xlink:title="radix.ts">
<path fill="#ddfeff" stroke="black" d="M296.58,-431.88C296.58,-431.88 254.42,-431.88 254.42,-431.88 251.46,-431.88 248.5,-428.92 248.5,-425.96 248.5,-425.96 248.5,-420.04 248.5,-420.04 248.5,-417.08 251.46,-414.12 254.42,-414.12 254.42,-414.12 296.58,-414.12 296.58,-414.12 299.54,-414.12 302.5,-417.08 302.5,-420.04 302.5,-420.04 302.5,-425.96 302.5,-425.96 302.5,-428.92 299.54,-431.88 296.58,-431.88"/>
<text text-anchor="start" x="260.88" y="-419.32" font-family="Helvetica,sans-Serif" font-size="9.00">radix.ts</text>
</a>
</g>
</g>
<!-- src/niche/anyHashMatch.ts -->
<g id="node32" class="node">
<title>src/niche/anyHashMatch.ts</title>
<g id="a_node32"><a xlink:href="src/niche/anyHashMatch.ts" xlink:title="anyHashMatch.ts">
<path fill="#ddfeff" stroke="black" d="M104.96,-326.88C104.96,-326.88 30.29,-326.88 30.29,-326.88 27.33,-326.88 24.38,-323.92 24.38,-320.96 24.38,-320.96 24.38,-315.04 24.38,-315.04 24.38,-312.08 27.33,-309.12 30.29,-309.12 30.29,-309.12 104.96,-309.12 104.96,-309.12 107.92,-309.12 110.88,-312.08 110.88,-315.04 110.88,-315.04 110.88,-320.96 110.88,-320.96 110.88,-323.92 107.92,-326.88 104.96,-326.88"/>
<text text-anchor="start" x="32.38" y="-314.32" font-family="Helvetica,sans-Serif" font-size="9.00">anyHashMatch.ts</text>
</a>
</g>
</g>
<!-- src/node/hash.ts -->
<g id="node33" class="node">
<title>src/node/hash.ts</title>
<g id="a_node33"><a xlink:href="src/node/hash.ts" xlink:title="hash.ts">
<path fill="#ddfeff" stroke="black" d="M194.71,-41.88C194.71,-41.88 152.54,-41.88 152.54,-41.88 149.58,-41.88 146.62,-38.92 146.62,-35.96 146.62,-35.96 146.62,-30.04 146.62,-30.04 146.62,-27.08 149.58,-24.12 152.54,-24.12 152.54,-24.12 194.71,-24.12 194.71,-24.12 197.67,-24.12 200.62,-27.08 200.62,-30.04 200.62,-30.04 200.62,-35.96 200.62,-35.96 200.62,-38.92 197.67,-41.88 194.71,-41.88"/>
<text text-anchor="start" x="159" y="-29.32" font-family="Helvetica,sans-Serif" font-size="9.00">hash.ts</text>
</a>
</g>
</g>
<!-- src/niche/anyHashMatch.ts&#45;&gt;src/node/hash.ts -->
<g id="edge4" class="edge">
<title>src/niche/anyHashMatch.ts&#45;&gt;src/node/hash.ts</title>
<path fill="none" stroke="#000000" stroke-width="2" stroke-opacity="0.200000" d="M88.9,-308.7C99.84,-302.52 112.41,-293.27 118.88,-281 130.96,-258.09 111.32,-68.71 126.88,-48 129.82,-44.07 133.83,-41.16 138.25,-39"/>
<polygon fill="#000000" fill-opacity="0.200000" stroke="#000000" stroke-width="2" stroke-opacity="0.200000" points="138.82,-41.03 143.69,-36.94 137.33,-37.1 138.82,-41.03"/>
</g>
<!-- src/str/chunkStr.ts -->
<g id="node34" class="node">
<title>src/str/chunkStr.ts</title>
<g id="a_node34"><a xlink:href="src/str/chunkStr.ts" xlink:title="chunkStr.ts">
<path fill="#ddfeff" stroke="black" d="M198.21,-401.88C198.21,-401.88 149.04,-401.88 149.04,-401.88 146.08,-401.88 143.12,-398.92 143.12,-395.96 143.12,-395.96 143.12,-390.04 143.12,-390.04 143.12,-387.08 146.08,-384.12 149.04,-384.12 149.04,-384.12 198.21,-384.12 198.21,-384.12 201.17,-384.12 204.12,-387.08 204.12,-390.04 204.12,-390.04 204.12,-395.96 204.12,-395.96 204.12,-398.92 201.17,-401.88 198.21,-401.88"/>
<text text-anchor="start" x="151.12" y="-389.32" font-family="Helvetica,sans-Serif" font-size="9.00">chunkStr.ts</text>
</a>
</g>
</g>
<!-- src/niche/anyHashMatch.ts&#45;&gt;src/str/chunkStr.ts -->
<g id="edge5" class="edge">
<title>src/niche/anyHashMatch.ts&#45;&gt;src/str/chunkStr.ts</title>
<path fill="none" stroke="#000000" stroke-width="2" stroke-opacity="0.200000" d="M111.34,-326.77C114.13,-328.5 116.69,-330.55 118.88,-333 132.4,-348.16 113.56,-362.66 126.88,-378 129.09,-380.55 131.74,-382.67 134.64,-384.43"/>
<polygon fill="#000000" fill-opacity="0.200000" stroke="#000000" stroke-width="2" stroke-opacity="0.200000" points="133.7,-386.31 140.02,-386.99 135.51,-382.51 133.7,-386.31"/>
</g>
<!-- src/node/crypto.ts -->
<g id="node38" class="node">
<title>src/node/crypto.ts</title>
<g id="a_node38"><a xlink:href="src/node/crypto.ts" xlink:title="crypto.ts">
<path fill="#ddfeff" stroke="black" d="M296.58,-71.88C296.58,-71.88 254.42,-71.88 254.42,-71.88 251.46,-71.88 248.5,-68.92 248.5,-65.96 248.5,-65.96 248.5,-60.04 248.5,-60.04 248.5,-57.08 251.46,-54.12 254.42,-54.12 254.42,-54.12 296.58,-54.12 296.58,-54.12 299.54,-54.12 302.5,-57.08 302.5,-60.04 302.5,-60.04 302.5,-65.96 302.5,-65.96 302.5,-68.92 299.54,-71.88 296.58,-71.88"/>
<text text-anchor="start" x="258.62" y="-59.33" font-family="Helvetica,sans-Serif" font-size="9.00">crypto.ts</text>
</a>
</g>
</g>
<!-- src/node/hash.ts&#45;&gt;src/node/crypto.ts -->
<g id="edge6" class="edge">
<title>src/node/hash.ts&#45;&gt;src/node/crypto.ts</title>
<path fill="none" stroke="#000000" stroke-width="2" stroke-opacity="0.200000" d="M200.87,-40.88C212.7,-44.44 226.84,-48.69 239.56,-52.5"/>
<polygon fill="#000000" fill-opacity="0.200000" stroke="#000000" stroke-width="2" stroke-opacity="0.200000" points="238.84,-54.48 245.19,-54.2 240.05,-50.46 238.84,-54.48"/>
</g>
<!-- src/str/chunkStr.ts&#45;&gt;src/arr/range.ts -->
<g id="edge8" class="edge">
<title>src/str/chunkStr.ts&#45;&gt;src/arr/range.ts</title>
<path fill="none" stroke="#000000" stroke-width="2" stroke-opacity="0.200000" d="M204.25,-397.34C210.41,-399.58 216.26,-402.94 220.38,-408 230.4,-420.32 224.19,-463.68 228.38,-479 237.01,-510.61 254.05,-544.88 264.83,-564.84"/>
<polygon fill="#000000" fill-opacity="0.200000" stroke="#000000" stroke-width="2" stroke-opacity="0.200000" points="262.96,-565.81 267.69,-570.06 266.64,-563.79 262.96,-565.81"/>
</g>
<!-- src/niche/buffer.ts -->
<g id="node35" class="node">
<title>src/niche/buffer.ts</title>
<g id="a_node35"><a xlink:href="src/niche/buffer.ts" xlink:title="no&#45;orphans">
<path fill="#ccffcc" stroke="blue" d="M88.71,-356.88C88.71,-356.88 46.54,-356.88 46.54,-356.88 43.58,-356.88 40.62,-353.92 40.62,-350.96 40.62,-350.96 40.62,-345.04 40.62,-345.04 40.62,-342.08 43.58,-339.12 46.54,-339.12 46.54,-339.12 88.71,-339.12 88.71,-339.12 91.67,-339.12 94.62,-342.08 94.62,-345.04 94.62,-345.04 94.62,-350.96 94.62,-350.96 94.62,-353.92 91.67,-356.88 88.71,-356.88"/>
<text text-anchor="start" x="51.5" y="-344.32" font-family="Helvetica,sans-Serif" font-size="9.00" fill="blue">buffer.ts</text>
</a>
</g>
</g>
<!-- src/niche/getOne.ts -->
<g id="node36" class="node">
<title>src/niche/getOne.ts</title>
<g id="a_node36"><a xlink:href="src/niche/getOne.ts" xlink:title="no&#45;orphans">
<path fill="#ccffcc" stroke="blue" d="M89.21,-386.88C89.21,-386.88 46.04,-386.88 46.04,-386.88 43.08,-386.88 40.12,-383.92 40.12,-380.96 40.12,-380.96 40.12,-375.04 40.12,-375.04 40.12,-372.08 43.08,-369.12 46.04,-369.12 46.04,-369.12 89.21,-369.12 89.21,-369.12 92.17,-369.12 95.12,-372.08 95.12,-375.04 95.12,-375.04 95.12,-380.96 95.12,-380.96 95.12,-383.92 92.17,-386.88 89.21,-386.88"/>
<text text-anchor="start" x="48.12" y="-374.32" font-family="Helvetica,sans-Serif" font-size="9.00" fill="blue">getOne.ts</text>
</a>
</g>
</g>
<!-- src/niche/regpick.ts -->
<g id="node37" class="node">
<title>src/niche/regpick.ts</title>
<g id="a_node37"><a xlink:href="src/niche/regpick.ts" xlink:title="no&#45;orphans">
<path fill="#ccffcc" stroke="blue" d="M89.21,-416.88C89.21,-416.88 46.04,-416.88 46.04,-416.88 43.08,-416.88 40.12,-413.92 40.12,-410.96 40.12,-410.96 40.12,-405.04 40.12,-405.04 40.12,-402.08 43.08,-399.12 46.04,-399.12 46.04,-399.12 89.21,-399.12 89.21,-399.12 92.17,-399.12 95.12,-402.08 95.12,-405.04 95.12,-405.04 95.12,-410.96 95.12,-410.96 95.12,-413.92 92.17,-416.88 89.21,-416.88"/>
<text text-anchor="start" x="48.12" y="-404.32" font-family="Helvetica,sans-Serif" font-size="9.00" fill="blue">regpick.ts</text>
</a>
</g>
</g>
<!-- src/node/getEnv.ts -->
<g id="node39" class="node">
<title>src/node/getEnv.ts</title>
<g id="a_node39"><a xlink:href="src/node/getEnv.ts" xlink:title="no&#45;orphans">
<path fill="#ccffcc" stroke="blue" d="M194.71,-71.88C194.71,-71.88 152.54,-71.88 152.54,-71.88 149.58,-71.88 146.62,-68.92 146.62,-65.96 146.62,-65.96 146.62,-60.04 146.62,-60.04 146.62,-57.08 149.58,-54.12 152.54,-54.12 152.54,-54.12 194.71,-54.12 194.71,-54.12 197.67,-54.12 200.62,-57.08 200.62,-60.04 200.62,-60.04 200.62,-65.96 200.62,-65.96 200.62,-68.92 197.67,-71.88 194.71,-71.88"/>
<text text-anchor="start" x="154.88" y="-59.33" font-family="Helvetica,sans-Serif" font-size="9.00" fill="blue">getEnv.ts</text>
</a>
</g>
</g>
<!-- src/node/performance.ts -->
<g id="node40" class="node">
<title>src/node/performance.ts</title>
<g id="a_node40"><a xlink:href="src/node/performance.ts" xlink:title="no&#45;orphans">
<path fill="#ccffcc" stroke="blue" d="M206.08,-101.88C206.08,-101.88 141.17,-101.88 141.17,-101.88 138.21,-101.88 135.25,-98.92 135.25,-95.96 135.25,-95.96 135.25,-90.04 135.25,-90.04 135.25,-87.08 138.21,-84.12 141.17,-84.12 141.17,-84.12 206.08,-84.12 206.08,-84.12 209.04,-84.12 212,-87.08 212,-90.04 212,-90.04 212,-95.96 212,-95.96 212,-98.92 209.04,-101.88 206.08,-101.88"/>
<text text-anchor="start" x="143.25" y="-89.33" font-family="Helvetica,sans-Serif" font-size="9.00" fill="blue">performance.ts</text>
</a>
</g>
</g>
<!-- src/obj/clean.ts -->
<g id="node41" class="node">
<title>src/obj/clean.ts</title>
<g id="a_node41"><a xlink:href="src/obj/clean.ts" xlink:title="no&#45;orphans">
<path fill="#ccffcc" stroke="blue" d="M390.21,-371.88C390.21,-371.88 348.04,-371.88 348.04,-371.88 345.08,-371.88 342.12,-368.92 342.12,-365.96 342.12,-365.96 342.12,-360.04 342.12,-360.04 342.12,-357.08 345.08,-354.12 348.04,-354.12 348.04,-354.12 390.21,-354.12 390.21,-354.12 393.17,-354.12 396.12,-357.08 396.12,-360.04 396.12,-360.04 396.12,-365.96 396.12,-365.96 396.12,-368.92 393.17,-371.88 390.21,-371.88"/>
<text text-anchor="start" x="353.38" y="-359.32" font-family="Helvetica,sans-Serif" font-size="9.00" fill="blue">clean.ts</text>
</a>
</g>
</g>
<!-- src/obj/countup.ts -->
<g id="node42" class="node">
<title>src/obj/countup.ts</title>
<g id="a_node42"><a xlink:href="src/obj/countup.ts" xlink:title="no&#45;orphans">
<path fill="#ccffcc" stroke="blue" d="M392.21,-401.88C392.21,-401.88 346.04,-401.88 346.04,-401.88 343.08,-401.88 340.12,-398.92 340.12,-395.96 340.12,-395.96 340.12,-390.04 340.12,-390.04 340.12,-387.08 343.08,-384.12 346.04,-384.12 346.04,-384.12 392.21,-384.12 392.21,-384.12 395.17,-384.12 398.12,-387.08 398.12,-390.04 398.12,-390.04 398.12,-395.96 398.12,-395.96 398.12,-398.92 395.17,-401.88 392.21,-401.88"/>
<text text-anchor="start" x="348.12" y="-389.32" font-family="Helvetica,sans-Serif" font-size="9.00" fill="blue">countup.ts</text>
</a>
</g>
</g>
<!-- src/obj/groupBy.ts -->
<g id="node43" class="node">
<title>src/obj/groupBy.ts</title>
<g id="a_node43"><a xlink:href="src/obj/groupBy.ts" xlink:title="no&#45;orphans">
<path fill="#ccffcc" stroke="blue" d="M392.96,-431.88C392.96,-431.88 345.29,-431.88 345.29,-431.88 342.33,-431.88 339.38,-428.92 339.38,-425.96 339.38,-425.96 339.38,-420.04 339.38,-420.04 339.38,-417.08 342.33,-414.12 345.29,-414.12 345.29,-414.12 392.96,-414.12 392.96,-414.12 395.92,-414.12 398.88,-417.08 398.88,-420.04 398.88,-420.04 398.88,-425.96 398.88,-425.96 398.88,-428.92 395.92,-431.88 392.96,-431.88"/>
<text text-anchor="start" x="347.38" y="-419.32" font-family="Helvetica,sans-Serif" font-size="9.00" fill="blue">groupBy.ts</text>
</a>
</g>
</g>
<!-- src/obj/idfy.ts -->
<g id="node44" class="node">
<title>src/obj/idfy.ts</title>
<g id="a_node44"><a xlink:href="src/obj/idfy.ts" xlink:title="no&#45;orphans">
<path fill="#ccffcc" stroke="blue" d="M390.21,-461.88C390.21,-461.88 348.04,-461.88 348.04,-461.88 345.08,-461.88 342.12,-458.92 342.12,-455.96 342.12,-455.96 342.12,-450.04 342.12,-450.04 342.12,-447.08 345.08,-444.12 348.04,-444.12 348.04,-444.12 390.21,-444.12 390.21,-444.12 393.17,-444.12 396.12,-447.08 396.12,-450.04 396.12,-450.04 396.12,-455.96 396.12,-455.96 396.12,-458.92 393.17,-461.88 390.21,-461.88"/>
<text text-anchor="start" x="357.5" y="-449.32" font-family="Helvetica,sans-Serif" font-size="9.00" fill="blue">idfy.ts</text>
</a>
</g>
</g>
<!-- src/obj/invert.ts -->
<g id="node45" class="node">
<title>src/obj/invert.ts</title>
<g id="a_node45"><a xlink:href="src/obj/invert.ts" xlink:title="invert.ts">
<path fill="#ddfeff" stroke="black" d="M390.21,-491.88C390.21,-491.88 348.04,-491.88 348.04,-491.88 345.08,-491.88 342.12,-488.92 342.12,-485.96 342.12,-485.96 342.12,-480.04 342.12,-480.04 342.12,-477.08 345.08,-474.12 348.04,-474.12 348.04,-474.12 390.21,-474.12 390.21,-474.12 393.17,-474.12 396.12,-477.08 396.12,-480.04 396.12,-480.04 396.12,-485.96 396.12,-485.96 396.12,-488.92 393.17,-491.88 390.21,-491.88"/>
<text text-anchor="start" x="353.38" y="-479.32" font-family="Helvetica,sans-Serif" font-size="9.00">invert.ts</text>
</a>
</g>
</g>
<!-- src/obj/makeMap.ts -->
<g id="node46" class="node">
<title>src/obj/makeMap.ts</title>
<g id="a_node46"><a xlink:href="src/obj/makeMap.ts" xlink:title="no&#45;orphans">
<path fill="#ccffcc" stroke="blue" d="M395.96,-521.88C395.96,-521.88 342.29,-521.88 342.29,-521.88 339.33,-521.88 336.38,-518.92 336.38,-515.96 336.38,-515.96 336.38,-510.04 336.38,-510.04 336.38,-507.08 339.33,-504.12 342.29,-504.12 342.29,-504.12 395.96,-504.12 395.96,-504.12 398.92,-504.12 401.88,-507.08 401.88,-510.04 401.88,-510.04 401.88,-515.96 401.88,-515.96 401.88,-518.92 398.92,-521.88 395.96,-521.88"/>
<text text-anchor="start" x="344.38" y="-509.32" font-family="Helvetica,sans-Serif" font-size="9.00" fill="blue">makeMap.ts</text>
</a>
</g>
</g>
<!-- src/obj/makeObj.ts -->
<g id="node47" class="node">
<title>src/obj/makeObj.ts</title>
<g id="a_node47"><a xlink:href="src/obj/makeObj.ts" xlink:title="no&#45;orphans">
<path fill="#ccffcc" stroke="blue" d="M394.08,-551.88C394.08,-551.88 344.17,-551.88 344.17,-551.88 341.21,-551.88 338.25,-548.92 338.25,-545.96 338.25,-545.96 338.25,-540.04 338.25,-540.04 338.25,-537.08 341.21,-534.12 344.17,-534.12 344.17,-534.12 394.08,-534.12 394.08,-534.12 397.04,-534.12 400,-537.08 400,-540.04 400,-540.04 400,-545.96 400,-545.96 400,-548.92 397.04,-551.88 394.08,-551.88"/>
<text text-anchor="start" x="346.25" y="-539.33" font-family="Helvetica,sans-Serif" font-size="9.00" fill="blue">makeObj.ts</text>
</a>
</g>
</g>
<!-- src/obj/upsert.ts -->
<g id="node48" class="node">
<title>src/obj/upsert.ts</title>
<g id="a_node48"><a xlink:href="src/obj/upsert.ts" xlink:title="no&#45;orphans">
<path fill="#ccffcc" stroke="blue" d="M390.21,-581.88C390.21,-581.88 348.04,-581.88 348.04,-581.88 345.08,-581.88 342.12,-578.92 342.12,-575.96 342.12,-575.96 342.12,-570.04 342.12,-570.04 342.12,-567.08 345.08,-564.12 348.04,-564.12 348.04,-564.12 390.21,-564.12 390.21,-564.12 393.17,-564.12 396.12,-567.08 396.12,-570.04 396.12,-570.04 396.12,-575.96 396.12,-575.96 396.12,-578.92 393.17,-581.88 390.21,-581.88"/>
<text text-anchor="start" x="351.88" y="-569.33" font-family="Helvetica,sans-Serif" font-size="9.00" fill="blue">upsert.ts</text>
</a>
</g>
</g>
<!-- src/rand/choice.ts -->
<g id="node49" class="node">
<title>src/rand/choice.ts</title>
<g id="a_node49"><a xlink:href="src/rand/choice.ts" xlink:title="no&#45;orphans">
<path fill="#ccffcc" stroke="blue" d="M194.71,-161.88C194.71,-161.88 152.54,-161.88 152.54,-161.88 149.58,-161.88 146.62,-158.92 146.62,-155.96 146.62,-155.96 146.62,-150.04 146.62,-150.04 146.62,-147.08 149.58,-144.12 152.54,-144.12 152.54,-144.12 194.71,-144.12 194.71,-144.12 197.67,-144.12 200.62,-147.08 200.62,-150.04 200.62,-150.04 200.62,-155.96 200.62,-155.96 200.62,-158.92 197.67,-161.88 194.71,-161.88"/>
<text text-anchor="start" x="155.62" y="-149.32" font-family="Helvetica,sans-Serif" font-size="9.00" fill="blue">choice.ts</text>
</a>
</g>
</g>
<!-- src/rand/make.ts -->
<g id="node50" class="node">
<title>src/rand/make.ts</title>
<g id="a_node50"><a xlink:href="src/rand/make.ts" xlink:title="make.ts">
<path fill="#ddfeff" stroke="black" d="M194.71,-191.88C194.71,-191.88 152.54,-191.88 152.54,-191.88 149.58,-191.88 146.62,-188.92 146.62,-185.96 146.62,-185.96 146.62,-180.04 146.62,-180.04 146.62,-177.08 149.58,-174.12 152.54,-174.12 152.54,-174.12 194.71,-174.12 194.71,-174.12 197.67,-174.12 200.62,-177.08 200.62,-180.04 200.62,-180.04 200.62,-185.96 200.62,-185.96 200.62,-188.92 197.67,-191.88 194.71,-191.88"/>
<text text-anchor="start" x="157.88" y="-179.32" font-family="Helvetica,sans-Serif" font-size="9.00">make.ts</text>
</a>
</g>
</g>
<!-- src/rand/make.ts&#45;&gt;src/node/crypto.ts -->
<g id="edge7" class="edge">
<title>src/rand/make.ts&#45;&gt;src/node/crypto.ts</title>
<path fill="none" stroke="#000000" stroke-width="2" stroke-opacity="0.200000" d="M200.99,-179.27C208.15,-177.06 215.31,-173.56 220.38,-168 231.13,-156.21 222.11,-147.67 228.38,-133 236.86,-113.12 251.03,-92.75 261.42,-79.15"/>
<polygon fill="#000000" fill-opacity="0.200000" stroke="#000000" stroke-width="2" stroke-opacity="0.200000" points="262.84,-80.74 264.89,-74.72 259.54,-78.15 262.84,-80.74"/>
</g>
<!-- src/rand/range.ts -->
<g id="node51" class="node">
<title>src/rand/range.ts</title>
<g id="a_node51"><a xlink:href="src/rand/range.ts" xlink:title="no&#45;orphans">
<path fill="#ccffcc" stroke="blue" d="M194.71,-221.88C194.71,-221.88 152.54,-221.88 152.54,-221.88 149.58,-221.88 146.62,-218.92 146.62,-215.96 146.62,-215.96 146.62,-210.04 146.62,-210.04 146.62,-207.08 149.58,-204.12 152.54,-204.12 152.54,-204.12 194.71,-204.12 194.71,-204.12 197.67,-204.12 200.62,-207.08 200.62,-210.04 200.62,-210.04 200.62,-215.96 200.62,-215.96 200.62,-218.92 197.67,-221.88 194.71,-221.88"/>
<text text-anchor="start" x="157.12" y="-209.32" font-family="Helvetica,sans-Serif" font-size="9.00" fill="blue">range.ts</text>
</a>
</g>
</g>
<!-- src/rand/sample.ts -->
<g id="node52" class="node">
<title>src/rand/sample.ts</title>
<g id="a_node52"><a xlink:href="src/rand/sample.ts" xlink:title="no&#45;orphans">
<path fill="#ccffcc" stroke="blue" d="M195.21,-251.88C195.21,-251.88 152.04,-251.88 152.04,-251.88 149.08,-251.88 146.12,-248.92 146.12,-245.96 146.12,-245.96 146.12,-240.04 146.12,-240.04 146.12,-237.08 149.08,-234.12 152.04,-234.12 152.04,-234.12 195.21,-234.12 195.21,-234.12 198.17,-234.12 201.12,-237.08 201.12,-240.04 201.12,-240.04 201.12,-245.96 201.12,-245.96 201.12,-248.92 198.17,-251.88 195.21,-251.88"/>
<text text-anchor="start" x="154.12" y="-239.32" font-family="Helvetica,sans-Serif" font-size="9.00" fill="blue">sample.ts</text>
</a>
</g>
</g>
<!-- src/rand/seed.ts -->
<g id="node53" class="node">
<title>src/rand/seed.ts</title>
<g id="a_node53"><a xlink:href="src/rand/seed.ts" xlink:title="no&#45;orphans">
<path fill="#ccffcc" stroke="blue" d="M194.71,-281.88C194.71,-281.88 152.54,-281.88 152.54,-281.88 149.58,-281.88 146.62,-278.92 146.62,-275.96 146.62,-275.96 146.62,-270.04 146.62,-270.04 146.62,-267.08 149.58,-264.12 152.54,-264.12 152.54,-264.12 194.71,-264.12 194.71,-264.12 197.67,-264.12 200.62,-267.08 200.62,-270.04 200.62,-270.04 200.62,-275.96 200.62,-275.96 200.62,-278.92 197.67,-281.88 194.71,-281.88"/>
<text text-anchor="start" x="159" y="-269.32" font-family="Helvetica,sans-Serif" font-size="9.00" fill="blue">seed.ts</text>
</a>
</g>
</g>
<!-- src/rand/shuffle.ts -->
<g id="node54" class="node">
<title>src/rand/shuffle.ts</title>
<g id="a_node54"><a xlink:href="src/rand/shuffle.ts" xlink:title="no&#45;orphans">
<path fill="#ccffcc" stroke="blue" d="M194.71,-311.88C194.71,-311.88 152.54,-311.88 152.54,-311.88 149.58,-311.88 146.62,-308.92 146.62,-305.96 146.62,-305.96 146.62,-300.04 146.62,-300.04 146.62,-297.08 149.58,-294.12 152.54,-294.12 152.54,-294.12 194.71,-294.12 194.71,-294.12 197.67,-294.12 200.62,-297.08 200.62,-300.04 200.62,-300.04 200.62,-305.96 200.62,-305.96 200.62,-308.92 197.67,-311.88 194.71,-311.88"/>
<text text-anchor="start" x="155.62" y="-299.32" font-family="Helvetica,sans-Serif" font-size="9.00" fill="blue">shuffle.ts</text>
</a>
</g>
</g>
<!-- src/str/format.ts -->
<g id="node55" class="node">
<title>src/str/format.ts</title>
<g id="a_node55"><a xlink:href="src/str/format.ts" xlink:title="format.ts">
<path fill="#ddfeff" stroke="black" d="M194.71,-431.88C194.71,-431.88 152.54,-431.88 152.54,-431.88 149.58,-431.88 146.62,-428.92 146.62,-425.96 146.62,-425.96 146.62,-420.04 146.62,-420.04 146.62,-417.08 149.58,-414.12 152.54,-414.12 152.54,-414.12 194.71,-414.12 194.71,-414.12 197.67,-414.12 200.62,-417.08 200.62,-420.04 200.62,-420.04 200.62,-425.96 200.62,-425.96 200.62,-428.92 197.67,-431.88 194.71,-431.88"/>
<text text-anchor="start" x="156.38" y="-419.32" font-family="Helvetica,sans-Serif" font-size="9.00">format.ts</text>
</a>
</g>
</g>
<!-- src/str/incstr.ts -->
<g id="node56" class="node">
<title>src/str/incstr.ts</title>
<g id="a_node56"><a xlink:href="src/str/incstr.ts" xlink:title="incstr.ts">
<path fill="#ddfeff" stroke="black" d="M194.71,-371.88C194.71,-371.88 152.54,-371.88 152.54,-371.88 149.58,-371.88 146.62,-368.92 146.62,-365.96 146.62,-365.96 146.62,-360.04 146.62,-360.04 146.62,-357.08 149.58,-354.12 152.54,-354.12 152.54,-354.12 194.71,-354.12 194.71,-354.12 197.67,-354.12 200.62,-357.08 200.62,-360.04 200.62,-360.04 200.62,-365.96 200.62,-365.96 200.62,-368.92 197.67,-371.88 194.71,-371.88"/>
<text text-anchor="start" x="158.25" y="-359.32" font-family="Helvetica,sans-Serif" font-size="9.00">incstr.ts</text>
</a>
</g>
</g>
<!-- src/str/incstr.ts&#45;&gt;src/char/constants.ts -->
<g id="edge9" class="edge">
<title>src/str/incstr.ts&#45;&gt;src/char/constants.ts</title>
<path fill="none" stroke="#000000" stroke-width="2" stroke-opacity="0.200000" d="M200.81,-355.95C208.32,-352.64 215.72,-347.85 220.38,-341 234.52,-320.18 212.87,-247.83 228.38,-228 230.36,-225.46 232.78,-223.35 235.46,-221.59"/>
<polygon fill="#000000" fill-opacity="0.200000" stroke="#000000" stroke-width="2" stroke-opacity="0.200000" points="235.97,-223.68 240.36,-219.08 234.06,-219.95 235.97,-223.68"/>
</g>
<!-- src/str/incstr.ts&#45;&gt;src/math/radix.ts -->
<g id="edge10" class="edge">
<title>src/str/incstr.ts&#45;&gt;src/math/radix.ts</title>
<path fill="none" stroke="#000000" stroke-width="2" stroke-opacity="0.200000" d="M200.87,-366.85C208.02,-369.06 215.21,-372.53 220.38,-378 229.85,-388.03 218.88,-397.98 228.38,-408 231.55,-411.35 235.48,-413.96 239.7,-415.98"/>
<polygon fill="#000000" fill-opacity="0.200000" stroke="#000000" stroke-width="2" stroke-opacity="0.200000" points="238.87,-417.91 245.22,-418.11 240.38,-413.99 238.87,-417.91"/>
</g>
<!-- src/str/incstr.ts&#45;&gt;src/obj/invert.ts -->
<g id="edge11" class="edge">
<title>src/str/incstr.ts&#45;&gt;src/obj/invert.ts</title>
<path fill="none" stroke="#000000" stroke-width="2" stroke-opacity="0.200000" d="M200.98,-366.19C208.31,-368.37 215.57,-372 220.38,-378 231.95,-392.47 215.67,-447.51 228.38,-461 254.69,-488.95 300.97,-490.97 333.02,-488.31"/>
<polygon fill="#000000" fill-opacity="0.200000" stroke="#000000" stroke-width="2" stroke-opacity="0.200000" points="332.88,-490.43 338.65,-487.75 332.47,-486.25 332.88,-490.43"/>
</g>
<!-- src/str/pickUrl.ts -->
<g id="node57" class="node">
<title>src/str/pickUrl.ts</title>
<g id="a_node57"><a xlink:href="src/str/pickUrl.ts" xlink:title="no&#45;orphans">
<path fill="#ccffcc" stroke="blue" d="M194.71,-461.88C194.71,-461.88 152.54,-461.88 152.54,-461.88 149.58,-461.88 146.62,-458.92 146.62,-455.96 146.62,-455.96 146.62,-450.04 146.62,-450.04 146.62,-447.08 149.58,-444.12 152.54,-444.12 152.54,-444.12 194.71,-444.12 194.71,-444.12 197.67,-444.12 200.62,-447.08 200.62,-450.04 200.62,-450.04 200.62,-455.96 200.62,-455.96 200.62,-458.92 197.67,-461.88 194.71,-461.88"/>
<text text-anchor="start" x="154.88" y="-449.32" font-family="Helvetica,sans-Serif" font-size="9.00" fill="blue">pickUrl.ts</text>
</a>
</g>
</g>
<!-- src/str/stringify.ts -->
<g id="node58" class="node">
<title>src/str/stringify.ts</title>
<g id="a_node58"><a xlink:href="src/str/stringify.ts" xlink:title="no&#45;orphans">
<path fill="#ccffcc" stroke="blue" d="M195.96,-491.88C195.96,-491.88 151.29,-491.88 151.29,-491.88 148.33,-491.88 145.38,-488.92 145.38,-485.96 145.38,-485.96 145.38,-480.04 145.38,-480.04 145.38,-477.08 148.33,-474.12 151.29,-474.12 151.29,-474.12 195.96,-474.12 195.96,-474.12 198.92,-474.12 201.88,-477.08 201.88,-480.04 201.88,-480.04 201.88,-485.96 201.88,-485.96 201.88,-488.92 198.92,-491.88 195.96,-491.88"/>
<text text-anchor="start" x="153.38" y="-479.32" font-family="Helvetica,sans-Serif" font-size="9.00" fill="blue">stringify.ts</text>
</a>
</g>
</g>
<!-- src/str/trim.ts -->
<g id="node59" class="node">
<title>src/str/trim.ts</title>
<g id="a_node59"><a xlink:href="src/str/trim.ts" xlink:title="no&#45;orphans">
<path fill="#ccffcc" stroke="blue" d="M194.71,-521.88C194.71,-521.88 152.54,-521.88 152.54,-521.88 149.58,-521.88 146.62,-518.92 146.62,-515.96 146.62,-515.96 146.62,-510.04 146.62,-510.04 146.62,-507.08 149.58,-504.12 152.54,-504.12 152.54,-504.12 194.71,-504.12 194.71,-504.12 197.67,-504.12 200.62,-507.08 200.62,-510.04 200.62,-510.04 200.62,-515.96 200.62,-515.96 200.62,-518.92 197.67,-521.88 194.71,-521.88"/>
<text text-anchor="start" x="161.62" y="-509.32" font-family="Helvetica,sans-Serif" font-size="9.00" fill="blue">trim.ts</text>
</a>
</g>
</g>
<!-- src/template/slack.ts -->
<g id="node60" class="node">
<title>src/template/slack.ts</title>
<g id="a_node60"><a xlink:href="src/template/slack.ts" xlink:title="no&#45;orphans">
<path fill="#ccffcc" stroke="blue" d="M88.71,-483.88C88.71,-483.88 46.54,-483.88 46.54,-483.88 43.58,-483.88 40.62,-480.92 40.62,-477.96 40.62,-477.96 40.62,-472.04 40.62,-472.04 40.62,-469.08 43.58,-466.12 46.54,-466.12 46.54,-466.12 88.71,-466.12 88.71,-466.12 91.67,-466.12 94.62,-469.08 94.62,-472.04 94.62,-472.04 94.62,-477.96 94.62,-477.96 94.62,-480.92 91.67,-483.88 88.71,-483.88"/>
<text text-anchor="start" x="52.62" y="-471.32" font-family="Helvetica,sans-Serif" font-size="9.00" fill="blue">slack.ts</text>
</a>
</g>
</g>
<!-- src/template/url.ts -->
<g id="node61" class="node">
<title>src/template/url.ts</title>
<g id="a_node61"><a xlink:href="src/template/url.ts" xlink:title="no&#45;orphans">
<path fill="#ccffcc" stroke="blue" d="M88.71,-513.88C88.71,-513.88 46.54,-513.88 46.54,-513.88 43.58,-513.88 40.62,-510.92 40.62,-507.96 40.62,-507.96 40.62,-502.04 40.62,-502.04 40.62,-499.08 43.58,-496.12 46.54,-496.12 46.54,-496.12 88.71,-496.12 88.71,-496.12 91.67,-496.12 94.62,-499.08 94.62,-502.04 94.62,-502.04 94.62,-507.96 94.62,-507.96 94.62,-510.92 91.67,-513.88 88.71,-513.88"/>
<text text-anchor="start" x="57.88" y="-501.32" font-family="Helvetica,sans-Serif" font-size="9.00" fill="blue">url.ts</text>
</a>
</g>
</g>
<!-- src/time/constants.ts -->
<g id="node62" class="node">
<title>src/time/constants.ts</title>
<g id="a_node62"><a xlink:href="src/time/constants.ts" xlink:title="constants.ts">
<path fill="#ddfeff" stroke="black" d="M199.71,-641.88C199.71,-641.88 147.54,-641.88 147.54,-641.88 144.58,-641.88 141.62,-638.92 141.62,-635.96 141.62,-635.96 141.62,-630.04 141.62,-630.04 141.62,-627.08 144.58,-624.12 147.54,-624.12 147.54,-624.12 199.71,-624.12 199.71,-624.12 202.67,-624.12 205.62,-627.08 205.62,-630.04 205.62,-630.04 205.62,-635.96 205.62,-635.96 205.62,-638.92 202.67,-641.88 199.71,-641.88"/>
<text text-anchor="start" x="149.62" y="-629.33" font-family="Helvetica,sans-Serif" font-size="9.00">constants.ts</text>
</a>
</g>
</g>
<!-- src/time/durationFormat.ts -->
<g id="node63" class="node">
<title>src/time/durationFormat.ts</title>
<g id="a_node63"><a xlink:href="src/time/durationFormat.ts" xlink:title="durationFormat.ts">
<path fill="#ddfeff" stroke="black" d="M105.33,-671.88C105.33,-671.88 29.92,-671.88 29.92,-671.88 26.96,-671.88 24,-668.92 24,-665.96 24,-665.96 24,-660.04 24,-660.04 24,-657.08 26.96,-654.12 29.92,-654.12 29.92,-654.12 105.33,-654.12 105.33,-654.12 108.29,-654.12 111.25,-657.08 111.25,-660.04 111.25,-660.04 111.25,-665.96 111.25,-665.96 111.25,-668.92 108.29,-671.88 105.33,-671.88"/>
<text text-anchor="start" x="32" y="-659.33" font-family="Helvetica,sans-Serif" font-size="9.00">durationFormat.ts</text>
</a>
</g>
</g>
<!-- src/time/durationFormat.ts&#45;&gt;src/algo/greedy.ts -->
<g id="edge12" class="edge">
<title>src/time/durationFormat.ts&#45;&gt;src/algo/greedy.ts</title>
<path fill="none" stroke="#000000" stroke-width="2" stroke-opacity="0.200000" d="M71.25,-672.37C77.44,-692.79 94.9,-741.58 126.88,-768 130.17,-770.72 133.96,-772.95 137.94,-774.78"/>
<polygon fill="#000000" fill-opacity="0.200000" stroke="#000000" stroke-width="2" stroke-opacity="0.200000" points="137.05,-776.69 143.4,-776.9 138.57,-772.77 137.05,-776.69"/>
</g>
<!-- src/time/format.ts -->
<g id="node64" class="node">
<title>src/time/format.ts</title>
<g id="a_node64"><a xlink:href="src/time/format.ts" xlink:title="format.ts">
<path fill="#ddfeff" stroke="black" d="M88.71,-581.88C88.71,-581.88 46.54,-581.88 46.54,-581.88 43.58,-581.88 40.62,-578.92 40.62,-575.96 40.62,-575.96 40.62,-570.04 40.62,-570.04 40.62,-567.08 43.58,-564.12 46.54,-564.12 46.54,-564.12 88.71,-564.12 88.71,-564.12 91.67,-564.12 94.62,-567.08 94.62,-570.04 94.62,-570.04 94.62,-575.96 94.62,-575.96 94.62,-578.92 91.67,-581.88 88.71,-581.88"/>
<text text-anchor="start" x="50.38" y="-569.33" font-family="Helvetica,sans-Serif" font-size="9.00">format.ts</text>
</a>
</g>
</g>
<!-- src/time/format.ts&#45;&gt;src/str/format.ts -->
<g id="edge13" class="edge">
<title>src/time/format.ts&#45;&gt;src/str/format.ts</title>
<path fill="none" stroke="#000000" stroke-width="2" stroke-opacity="0.200000" d="M94.06,-563.74C103.44,-559 113.15,-552.24 118.88,-543 131.19,-523.1 112.44,-456.41 126.88,-438 129.77,-434.31 133.59,-431.52 137.79,-429.41"/>
<polygon fill="#000000" fill-opacity="0.200000" stroke="#000000" stroke-width="2" stroke-opacity="0.200000" points="138.55,-431.37 143.38,-427.23 137.02,-427.45 138.55,-431.37"/>
</g>
<!-- src/time/sleep.ts -->
<g id="node65" class="node">
<title>src/time/sleep.ts</title>
<g id="a_node65"><a xlink:href="src/time/sleep.ts" xlink:title="sleep.ts">
<path fill="#ddfeff" stroke="black" d="M194.71,-611.88C194.71,-611.88 152.54,-611.88 152.54,-611.88 149.58,-611.88 146.62,-608.92 146.62,-605.96 146.62,-605.96 146.62,-600.04 146.62,-600.04 146.62,-597.08 149.58,-594.12 152.54,-594.12 152.54,-594.12 194.71,-594.12 194.71,-594.12 197.67,-594.12 200.62,-597.08 200.62,-600.04 200.62,-600.04 200.62,-605.96 200.62,-605.96 200.62,-608.92 197.67,-611.88 194.71,-611.88"/>
<text text-anchor="start" x="157.88" y="-599.33" font-family="Helvetica,sans-Serif" font-size="9.00">sleep.ts</text>
</a>
</g>
</g>
<!-- src/time/timeout.ts -->
<g id="node66" class="node">
<title>src/time/timeout.ts</title>
<g id="a_node66"><a xlink:href="src/time/timeout.ts" xlink:title="timeout.ts">
<path fill="#ddfeff" stroke="black" d="M89.21,-611.88C89.21,-611.88 46.04,-611.88 46.04,-611.88 43.08,-611.88 40.12,-608.92 40.12,-605.96 40.12,-605.96 40.12,-600.04 40.12,-600.04 40.12,-597.08 43.08,-594.12 46.04,-594.12 46.04,-594.12 89.21,-594.12 89.21,-594.12 92.17,-594.12 95.12,-597.08 95.12,-600.04 95.12,-600.04 95.12,-605.96 95.12,-605.96 95.12,-608.92 92.17,-611.88 89.21,-611.88"/>
<text text-anchor="start" x="48.12" y="-599.33" font-family="Helvetica,sans-Serif" font-size="9.00">timeout.ts</text>
</a>
</g>
</g>
<!-- src/time/timeout.ts&#45;&gt;src/time/sleep.ts -->
<g id="edge14" class="edge">
<title>src/time/timeout.ts&#45;&gt;src/time/sleep.ts</title>
<path fill="none" stroke="#000000" stroke-width="2" stroke-opacity="0.200000" d="M95.41,-603C108.24,-603 123.79,-603 137.55,-603"/>
<polygon fill="#000000" fill-opacity="0.200000" stroke="#000000" stroke-width="2" stroke-opacity="0.200000" points="137.27,-605.1 143.27,-603 137.27,-600.9 137.27,-605.1"/>
</g>
<!-- src/time/utils.ts -->
<g id="node67" class="node">
<title>src/time/utils.ts</title>
<g id="a_node67"><a xlink:href="src/time/utils.ts" xlink:title="utils.ts">
<path fill="#ddfeff" stroke="black" d="M88.71,-641.88C88.71,-641.88 46.54,-641.88 46.54,-641.88 43.58,-641.88 40.62,-638.92 40.62,-635.96 40.62,-635.96 40.62,-630.04 40.62,-630.04 40.62,-627.08 43.58,-624.12 46.54,-624.12 46.54,-624.12 88.71,-624.12 88.71,-624.12 91.67,-624.12 94.62,-627.08 94.62,-630.04 94.62,-630.04 94.62,-635.96 94.62,-635.96 94.62,-638.92 91.67,-641.88 88.71,-641.88"/>
<text text-anchor="start" x="54.88" y="-629.33" font-family="Helvetica,sans-Serif" font-size="9.00">utils.ts</text>
</a>
</g>
</g>
<!-- src/time/utils.ts&#45;&gt;src/time/constants.ts -->
<g id="edge15" class="edge">
<title>src/time/utils.ts&#45;&gt;src/time/constants.ts</title>
<path fill="none" stroke="#000000" stroke-width="2" stroke-opacity="0.200000" d="M94.87,-633C106.2,-633 119.71,-633 132.27,-633"/>
<polygon fill="#000000" fill-opacity="0.200000" stroke="#000000" stroke-width="2" stroke-opacity="0.200000" points="132.17,-635.1 138.17,-633 132.17,-630.9 132.17,-635.1"/>
</g>
</g>
</svg>
