<?xml version="1.0" encoding="UTF-8" standalone="no"?>
<!DOCTYPE svg PUBLIC "-//W3C//DTD SVG 1.1//EN"
 "http://www.w3.org/Graphics/SVG/1.1/DTD/svg11.dtd">
<!-- Generated by graphviz version 7.0.6 (20230106.0513)
 -->
<!-- Title: dependency&#45;cruiser output Pages: 1 -->
<svg width="336pt" height="1272pt"
 viewBox="0.00 0.00 335.50 1272.00" xmlns="http://www.w3.org/2000/svg" xmlns:xlink="http://www.w3.org/1999/xlink">
<g id="graph0" class="graph" transform="scale(1 1) rotate(0) translate(4 1268)">
<title>dependency&#45;cruiser output</title>
<polygon fill="white" stroke="none" points="-4,4 -4,-1268 331.5,-1268 331.5,4 -4,4"/>
<g id="clust1" class="cluster">
<title>cluster_src</title>
<path fill="#ffffff" stroke="black" stroke-width="2" d="M20,-8C20,-8 307.5,-8 307.5,-8 313.5,-8 319.5,-14 319.5,-20 319.5,-20 319.5,-1244 319.5,-1244 319.5,-1250 313.5,-1256 307.5,-1256 307.5,-1256 20,-1256 20,-1256 14,-1256 8,-1250 8,-1244 8,-1244 8,-20 8,-20 8,-14 14,-8 20,-8"/>
<text text-anchor="middle" x="163.75" y="-1244.8" font-family="Helvetica,sans-Serif" font-weight="bold" font-size="9.00">src</text>
</g>
<g id="clust2" class="cluster">
<title>cluster_src/algo</title>
<path fill="#ffffff" stroke="black" stroke-width="2" d="M139.5,-1028C139.5,-1028 209.5,-1028 209.5,-1028 215.5,-1028 221.5,-1034 221.5,-1040 221.5,-1040 221.5,-1218 221.5,-1218 221.5,-1224 215.5,-1230 209.5,-1230 209.5,-1230 139.5,-1230 139.5,-1230 133.5,-1230 127.5,-1224 127.5,-1218 127.5,-1218 127.5,-1040 127.5,-1040 127.5,-1034 133.5,-1028 139.5,-1028"/>
<text text-anchor="middle" x="174.5" y="-1218.8" font-family="Helvetica,sans-Serif" font-weight="bold" font-size="9.00">algo</text>
</g>
<g id="clust3" class="cluster">
<title>cluster_src/char</title>
<path fill="#ffffff" stroke="black" stroke-width="2" d="M139,-265C139,-265 293.5,-265 293.5,-265 299.5,-265 305.5,-271 305.5,-277 305.5,-277 305.5,-425 305.5,-425 305.5,-431 299.5,-437 293.5,-437 293.5,-437 139,-437 139,-437 133,-437 127,-431 127,-425 127,-425 127,-277 127,-277 127,-271 133,-265 139,-265"/>
<text text-anchor="middle" x="216.25" y="-425.8" font-family="Helvetica,sans-Serif" font-weight="bold" font-size="9.00">char</text>
</g>
<g id="clust4" class="cluster">
<title>cluster_src/niche</title>
<path fill="#ffffff" stroke="black" stroke-width="2" d="M28,-972C28,-972 107,-972 107,-972 113,-972 119,-978 119,-984 119,-984 119,-1042 119,-1042 119,-1048 113,-1054 107,-1054 107,-1054 28,-1054 28,-1054 22,-1054 16,-1048 16,-1042 16,-1042 16,-984 16,-984 16,-978 22,-972 28,-972"/>
<text text-anchor="middle" x="67.5" y="-1042.8" font-family="Helvetica,sans-Serif" font-weight="bold" font-size="9.00">niche</text>
</g>
<g id="clust5" class="cluster">
<title>cluster_src/obj</title>
<path fill="#ffffff" stroke="black" stroke-width="2" d="M241.5,-445C241.5,-445 299.5,-445 299.5,-445 305.5,-445 311.5,-451 311.5,-457 311.5,-457 311.5,-695 311.5,-695 311.5,-701 305.5,-707 299.5,-707 299.5,-707 241.5,-707 241.5,-707 235.5,-707 229.5,-701 229.5,-695 229.5,-695 229.5,-457 229.5,-457 229.5,-451 235.5,-445 241.5,-445"/>
<text text-anchor="middle" x="270.5" y="-695.8" font-family="Helvetica,sans-Serif" font-weight="bold" font-size="9.00">obj</text>
</g>
<g id="clust6" class="cluster">
<title>cluster_src/rand</title>
<path fill="#ffffff" stroke="black" stroke-width="2" d="M44.5,-792C44.5,-792 198.5,-792 198.5,-792 204.5,-792 210.5,-798 210.5,-804 210.5,-804 210.5,-952 210.5,-952 210.5,-958 204.5,-964 198.5,-964 198.5,-964 44.5,-964 44.5,-964 38.5,-964 32.5,-958 32.5,-952 32.5,-952 32.5,-804 32.5,-804 32.5,-798 38.5,-792 44.5,-792"/>
<text text-anchor="middle" x="121.5" y="-952.8" font-family="Helvetica,sans-Serif" font-weight="bold" font-size="9.00">rand</text>
</g>
<g id="clust7" class="cluster">
<title>cluster_src/template</title>
<path fill="#ffffff" stroke="black" stroke-width="2" d="M44.5,-672C44.5,-672 90.5,-672 90.5,-672 96.5,-672 102.5,-678 102.5,-684 102.5,-684 102.5,-772 102.5,-772 102.5,-778 96.5,-784 90.5,-784 90.5,-784 44.5,-784 44.5,-784 38.5,-784 32.5,-778 32.5,-772 32.5,-772 32.5,-684 32.5,-684 32.5,-678 38.5,-672 44.5,-672"/>
<text text-anchor="middle" x="67.5" y="-772.8" font-family="Helvetica,sans-Serif" font-weight="bold" font-size="9.00">template</text>
</g>
<g id="clust8" class="cluster">
<title>cluster_src/time</title>
<path fill="#ffffff" stroke="black" stroke-width="2" d="M44.5,-582C44.5,-582 90.5,-582 90.5,-582 96.5,-582 102.5,-588 102.5,-594 102.5,-594 102.5,-652 102.5,-652 102.5,-658 96.5,-664 90.5,-664 90.5,-664 44.5,-664 44.5,-664 38.5,-664 32.5,-658 32.5,-652 32.5,-652 32.5,-594 32.5,-594 32.5,-588 38.5,-582 44.5,-582"/>
<text text-anchor="middle" x="67.5" y="-652.8" font-family="Helvetica,sans-Serif" font-weight="bold" font-size="9.00">time</text>
</g>
<!-- src/algo/defrag.ts -->
<g id="node1" class="node">
<title>src/algo/defrag.ts</title>
<g id="a_node1"><a xlink:href="src/algo/defrag.ts" xlink:title="no&#45;orphans">
<path fill="#ccffcc" stroke="blue" d="M195.5,-1204C195.5,-1204 153.5,-1204 153.5,-1204 150.5,-1204 147.5,-1201 147.5,-1198 147.5,-1198 147.5,-1192 147.5,-1192 147.5,-1189 150.5,-1186 153.5,-1186 153.5,-1186 195.5,-1186 195.5,-1186 198.5,-1186 201.5,-1189 201.5,-1192 201.5,-1192 201.5,-1198 201.5,-1198 201.5,-1201 198.5,-1204 195.5,-1204"/>
<text text-anchor="start" x="156.5" y="-1192.8" font-family="Helvetica,sans-Serif" font-size="9.00" fill="blue">defrag.ts</text>
</a>
</g>
</g>
<!-- src/algo/outscape.ts -->
<g id="node2" class="node">
<title>src/algo/outscape.ts</title>
<g id="a_node2"><a xlink:href="src/algo/outscape.ts" xlink:title="no&#45;orphans">
<path fill="#ccffcc" stroke="blue" d="M200,-1174C200,-1174 149,-1174 149,-1174 146,-1174 143,-1171 143,-1168 143,-1168 143,-1162 143,-1162 143,-1159 146,-1156 149,-1156 149,-1156 200,-1156 200,-1156 203,-1156 206,-1159 206,-1162 206,-1162 206,-1168 206,-1168 206,-1171 203,-1174 200,-1174"/>
<text text-anchor="start" x="151" y="-1162.8" font-family="Helvetica,sans-Serif" font-size="9.00" fill="blue">outscape.ts</text>
</a>
</g>
</g>
<!-- src/algo/permutation.ts -->
<g id="node3" class="node">
<title>src/algo/permutation.ts</title>
<g id="a_node3"><a xlink:href="src/algo/permutation.ts" xlink:title="no&#45;orphans">
<path fill="#ccffcc" stroke="blue" d="M205.5,-1144C205.5,-1144 143.5,-1144 143.5,-1144 140.5,-1144 137.5,-1141 137.5,-1138 137.5,-1138 137.5,-1132 137.5,-1132 137.5,-1129 140.5,-1126 143.5,-1126 143.5,-1126 205.5,-1126 205.5,-1126 208.5,-1126 211.5,-1129 211.5,-1132 211.5,-1132 211.5,-1138 211.5,-1138 211.5,-1141 208.5,-1144 205.5,-1144"/>
<text text-anchor="start" x="145.5" y="-1132.8" font-family="Helvetica,sans-Serif" font-size="9.00" fill="blue">permutation.ts</text>
</a>
</g>
</g>
<!-- src/algo/queueMerge.ts -->
<g id="node4" class="node">
<title>src/algo/queueMerge.ts</title>
<g id="a_node4"><a xlink:href="src/algo/queueMerge.ts" xlink:title="no&#45;orphans">
<path fill="#ccffcc" stroke="blue" d="M207.5,-1114C207.5,-1114 141.5,-1114 141.5,-1114 138.5,-1114 135.5,-1111 135.5,-1108 135.5,-1108 135.5,-1102 135.5,-1102 135.5,-1099 138.5,-1096 141.5,-1096 141.5,-1096 207.5,-1096 207.5,-1096 210.5,-1096 213.5,-1099 213.5,-1102 213.5,-1102 213.5,-1108 213.5,-1108 213.5,-1111 210.5,-1114 207.5,-1114"/>
<text text-anchor="start" x="143.5" y="-1102.8" font-family="Helvetica,sans-Serif" font-size="9.00" fill="blue">queueMerge.ts</text>
</a>
</g>
</g>
<!-- src/algo/rowspan.ts -->
<g id="node5" class="node">
<title>src/algo/rowspan.ts</title>
<g id="a_node5"><a xlink:href="src/algo/rowspan.ts" xlink:title="rowspan.ts">
<path fill="#ddfeff" stroke="black" d="M199,-1084C199,-1084 150,-1084 150,-1084 147,-1084 144,-1081 144,-1078 144,-1078 144,-1072 144,-1072 144,-1069 147,-1066 150,-1066 150,-1066 199,-1066 199,-1066 202,-1066 205,-1069 205,-1072 205,-1072 205,-1078 205,-1078 205,-1081 202,-1084 199,-1084"/>
<text text-anchor="start" x="152" y="-1072.8" font-family="Helvetica,sans-Serif" font-size="9.00">rowspan.ts</text>
</a>
</g>
</g>
<!-- src/windowed.ts -->
<g id="node6" class="node">
<title>src/windowed.ts</title>
<g id="a_node6"><a xlink:href="src/windowed.ts" xlink:title="windowed.ts">
<path fill="#ddfeff" stroke="black" d="M298.5,-1084C298.5,-1084 242.5,-1084 242.5,-1084 239.5,-1084 236.5,-1081 236.5,-1078 236.5,-1078 236.5,-1072 236.5,-1072 236.5,-1069 239.5,-1066 242.5,-1066 242.5,-1066 298.5,-1066 298.5,-1066 301.5,-1066 304.5,-1069 304.5,-1072 304.5,-1072 304.5,-1078 304.5,-1078 304.5,-1081 301.5,-1084 298.5,-1084"/>
<text text-anchor="start" x="244.5" y="-1072.8" font-family="Helvetica,sans-Serif" font-size="9.00">windowed.ts</text>
</a>
</g>
</g>
<!-- src/algo/rowspan.ts&#45;&gt;src/windowed.ts -->
<g id="edge1" class="edge">
<title>src/algo/rowspan.ts&#45;&gt;src/windowed.ts</title>
<path fill="none" stroke="#000000" stroke-width="2" stroke-opacity="0.200000" d="M205.24,-1075C212.28,-1075 219.91,-1075 227.38,-1075"/>
<polygon fill="#000000" fill-opacity="0.200000" stroke="#000000" stroke-width="2" stroke-opacity="0.200000" points="227,-1077.1 233,-1075 227,-1072.9 227,-1077.1"/>
</g>
<!-- src/algo/scheduling.ts -->
<g id="node7" class="node">
<title>src/algo/scheduling.ts</title>
<g id="a_node7"><a xlink:href="src/algo/scheduling.ts" xlink:title="scheduling.ts">
<path fill="#ddfeff" stroke="black" d="M204,-1054C204,-1054 145,-1054 145,-1054 142,-1054 139,-1051 139,-1048 139,-1048 139,-1042 139,-1042 139,-1039 142,-1036 145,-1036 145,-1036 204,-1036 204,-1036 207,-1036 210,-1039 210,-1042 210,-1042 210,-1048 210,-1048 210,-1051 207,-1054 204,-1054"/>
<text text-anchor="start" x="147" y="-1042.8" font-family="Helvetica,sans-Serif" font-size="9.00">scheduling.ts</text>
</a>
</g>
</g>
<!-- src/last.ts -->
<g id="node8" class="node">
<title>src/last.ts</title>
<g id="a_node8"><a xlink:href="src/last.ts" xlink:title="last.ts">
<path fill="#ddfeff" stroke="black" d="M291.5,-1054C291.5,-1054 249.5,-1054 249.5,-1054 246.5,-1054 243.5,-1051 243.5,-1048 243.5,-1048 243.5,-1042 243.5,-1042 243.5,-1039 246.5,-1036 249.5,-1036 249.5,-1036 291.5,-1036 291.5,-1036 294.5,-1036 297.5,-1039 297.5,-1042 297.5,-1042 297.5,-1048 297.5,-1048 297.5,-1051 294.5,-1054 291.5,-1054"/>
<text text-anchor="start" x="258.5" y="-1042.8" font-family="Helvetica,sans-Serif" font-size="9.00">last.ts</text>
</a>
</g>
</g>
<!-- src/algo/scheduling.ts&#45;&gt;src/last.ts -->
<g id="edge2" class="edge">
<title>src/algo/scheduling.ts&#45;&gt;src/last.ts</title>
<path fill="none" stroke="#000000" stroke-width="2" stroke-opacity="0.200000" d="M210.24,-1045C218.05,-1045 226.36,-1045 234.2,-1045"/>
<polygon fill="#000000" fill-opacity="0.200000" stroke="#000000" stroke-width="2" stroke-opacity="0.200000" points="234.11,-1047.1 240.11,-1045 234.11,-1042.9 234.11,-1047.1"/>
</g>
<!-- src/obj/keyBy.ts -->
<g id="node9" class="node">
<title>src/obj/keyBy.ts</title>
<g id="a_node9"><a xlink:href="src/obj/keyBy.ts" xlink:title="keyBy.ts">
<path fill="#ddfeff" stroke="black" d="M291.5,-681C291.5,-681 249.5,-681 249.5,-681 246.5,-681 243.5,-678 243.5,-675 243.5,-675 243.5,-669 243.5,-669 243.5,-666 246.5,-663 249.5,-663 249.5,-663 291.5,-663 291.5,-663 294.5,-663 297.5,-666 297.5,-669 297.5,-669 297.5,-675 297.5,-675 297.5,-678 294.5,-681 291.5,-681"/>
<text text-anchor="start" x="253.5" y="-669.8" font-family="Helvetica,sans-Serif" font-size="9.00">keyBy.ts</text>
</a>
</g>
</g>
<!-- src/algo/scheduling.ts&#45;&gt;src/obj/keyBy.ts -->
<g id="edge3" class="edge">
<title>src/algo/scheduling.ts&#45;&gt;src/obj/keyBy.ts</title>
<path fill="none" stroke="#000000" stroke-width="2" stroke-opacity="0.200000" d="M210.2,-1040.53C214.58,-1038.55 218.55,-1035.8 221.5,-1032 245.12,-1001.51 206.47,-715.94 229.5,-685 231.2,-682.72 233.31,-680.83 235.67,-679.26"/>
<polygon fill="#000000" fill-opacity="0.200000" stroke="#000000" stroke-width="2" stroke-opacity="0.200000" points="236.15,-681.37 240.6,-676.83 234.29,-677.6 236.15,-681.37"/>
</g>
<!-- src/range.ts -->
<g id="node10" class="node">
<title>src/range.ts</title>
<g id="a_node10"><a xlink:href="src/range.ts" xlink:title="range.ts">
<path fill="#ddfeff" stroke="black" d="M291.5,-1022C291.5,-1022 249.5,-1022 249.5,-1022 246.5,-1022 243.5,-1019 243.5,-1016 243.5,-1016 243.5,-1010 243.5,-1010 243.5,-1007 246.5,-1004 249.5,-1004 249.5,-1004 291.5,-1004 291.5,-1004 294.5,-1004 297.5,-1007 297.5,-1010 297.5,-1010 297.5,-1016 297.5,-1016 297.5,-1019 294.5,-1022 291.5,-1022"/>
<text text-anchor="start" x="253.5" y="-1010.8" font-family="Helvetica,sans-Serif" font-size="9.00">range.ts</text>
</a>
</g>
</g>
<!-- src/algo/scheduling.ts&#45;&gt;src/range.ts -->
<g id="edge4" class="edge">
<title>src/algo/scheduling.ts&#45;&gt;src/range.ts</title>
<path fill="none" stroke="#000000" stroke-width="2" stroke-opacity="0.200000" d="M210.28,-1035.58C214.08,-1034.43 217.88,-1033.22 221.5,-1032 227.2,-1030.07 233.22,-1027.85 238.99,-1025.61"/>
<polygon fill="#000000" fill-opacity="0.200000" stroke="#000000" stroke-width="2" stroke-opacity="0.200000" points="239.58,-1027.64 244.39,-1023.48 238.04,-1023.73 239.58,-1027.64"/>
</g>
<!-- src/binary.ts -->
<g id="node11" class="node">
<title>src/binary.ts</title>
<g id="a_node11"><a xlink:href="src/binary.ts" xlink:title="no&#45;orphans">
<path fill="#ccffcc" stroke="blue" d="M88.5,-574C88.5,-574 46.5,-574 46.5,-574 43.5,-574 40.5,-571 40.5,-568 40.5,-568 40.5,-562 40.5,-562 40.5,-559 43.5,-556 46.5,-556 46.5,-556 88.5,-556 88.5,-556 91.5,-556 94.5,-559 94.5,-562 94.5,-562 94.5,-568 94.5,-568 94.5,-571 91.5,-574 88.5,-574"/>
<text text-anchor="start" x="50" y="-562.8" font-family="Helvetica,sans-Serif" font-size="9.00" fill="blue">binary.ts</text>
</a>
</g>
</g>
<!-- src/char/ascii.ts -->
<g id="node12" class="node">
<title>src/char/ascii.ts</title>
<g id="a_node12"><a xlink:href="src/char/ascii.ts" xlink:title="ascii.ts">
<path fill="#ddfeff" stroke="black" d="M195.5,-411C195.5,-411 153.5,-411 153.5,-411 150.5,-411 147.5,-408 147.5,-405 147.5,-405 147.5,-399 147.5,-399 147.5,-396 150.5,-393 153.5,-393 153.5,-393 195.5,-393 195.5,-393 198.5,-393 201.5,-396 201.5,-399 201.5,-399 201.5,-405 201.5,-405 201.5,-408 198.5,-411 195.5,-411"/>
<text text-anchor="start" x="160.5" y="-399.8" font-family="Helvetica,sans-Serif" font-size="9.00">ascii.ts</text>
</a>
</g>
</g>
<!-- src/char/ascii.ts&#45;&gt;src/obj/keyBy.ts -->
<g id="edge5" class="edge">
<title>src/char/ascii.ts&#45;&gt;src/obj/keyBy.ts</title>
<path fill="none" stroke="#000000" stroke-width="2" stroke-opacity="0.200000" d="M201.67,-403.65C209.21,-405.47 216.69,-408.86 221.5,-415 238.08,-436.18 213.81,-635.14 229.5,-657 231.19,-659.35 233.29,-661.33 235.64,-663"/>
<polygon fill="#000000" fill-opacity="0.200000" stroke="#000000" stroke-width="2" stroke-opacity="0.200000" points="234.33,-664.69 240.61,-665.7 236.34,-660.99 234.33,-664.69"/>
</g>
<!-- src/char/bom.ts -->
<g id="node13" class="node">
<title>src/char/bom.ts</title>
<g id="a_node13"><a xlink:href="src/char/bom.ts" xlink:title="no&#45;orphans">
<path fill="#ccffcc" stroke="blue" d="M195.5,-381C195.5,-381 153.5,-381 153.5,-381 150.5,-381 147.5,-378 147.5,-375 147.5,-375 147.5,-369 147.5,-369 147.5,-366 150.5,-363 153.5,-363 153.5,-363 195.5,-363 195.5,-363 198.5,-363 201.5,-366 201.5,-369 201.5,-369 201.5,-375 201.5,-375 201.5,-378 198.5,-381 195.5,-381"/>
<text text-anchor="start" x="160.5" y="-369.8" font-family="Helvetica,sans-Serif" font-size="9.00" fill="blue">bom.ts</text>
</a>
</g>
</g>
<!-- src/char/constants.ts -->
<g id="node14" class="node">
<title>src/char/constants.ts</title>
<g id="a_node14"><a xlink:href="src/char/constants.ts" xlink:title="constants.ts">
<path fill="#ddfeff" stroke="black" d="M201,-351C201,-351 148,-351 148,-351 145,-351 142,-348 142,-345 142,-345 142,-339 142,-339 142,-336 145,-333 148,-333 148,-333 201,-333 201,-333 204,-333 207,-336 207,-339 207,-339 207,-345 207,-345 207,-348 204,-351 201,-351"/>
<text text-anchor="start" x="150" y="-339.8" font-family="Helvetica,sans-Serif" font-size="9.00">constants.ts</text>
</a>
</g>
</g>
<!-- src/char/romanization.ts -->
<g id="node15" class="node">
<title>src/char/romanization.ts</title>
<g id="a_node15"><a xlink:href="src/char/romanization.ts" xlink:title="no&#45;orphans">
<path fill="#ccffcc" stroke="blue" d="M208,-321C208,-321 141,-321 141,-321 138,-321 135,-318 135,-315 135,-315 135,-309 135,-309 135,-306 138,-303 141,-303 141,-303 208,-303 208,-303 211,-303 214,-306 214,-309 214,-309 214,-315 214,-315 214,-318 211,-321 208,-321"/>
<text text-anchor="start" x="143" y="-309.8" font-family="Helvetica,sans-Serif" font-size="9.00" fill="blue">romanization.ts</text>
</a>
</g>
</g>
<!-- src/char/shift.ts -->
<g id="node16" class="node">
<title>src/char/shift.ts</title>
<g id="a_node16"><a xlink:href="src/char/shift.ts" xlink:title="shift.ts">
<path fill="#ddfeff" stroke="black" d="M291.5,-291C291.5,-291 249.5,-291 249.5,-291 246.5,-291 243.5,-288 243.5,-285 243.5,-285 243.5,-279 243.5,-279 243.5,-276 246.5,-273 249.5,-273 249.5,-273 291.5,-273 291.5,-273 294.5,-273 297.5,-276 297.5,-279 297.5,-279 297.5,-285 297.5,-285 297.5,-288 294.5,-291 291.5,-291"/>
<text text-anchor="start" x="257.5" y="-279.8" font-family="Helvetica,sans-Serif" font-size="9.00">shift.ts</text>
</a>
</g>
</g>
<!-- src/char/width.ts -->
<g id="node17" class="node">
<title>src/char/width.ts</title>
<g id="a_node17"><a xlink:href="src/char/width.ts" xlink:title="width.ts">
<path fill="#ddfeff" stroke="black" d="M195.5,-291C195.5,-291 153.5,-291 153.5,-291 150.5,-291 147.5,-288 147.5,-285 147.5,-285 147.5,-279 147.5,-279 147.5,-276 150.5,-273 153.5,-273 153.5,-273 195.5,-273 195.5,-273 198.5,-273 201.5,-276 201.5,-279 201.5,-279 201.5,-285 201.5,-285 201.5,-288 198.5,-291 195.5,-291"/>
<text text-anchor="start" x="159" y="-279.8" font-family="Helvetica,sans-Serif" font-size="9.00">width.ts</text>
</a>
</g>
</g>
<!-- src/char/width.ts&#45;&gt;src/char/shift.ts -->
<g id="edge6" class="edge">
<title>src/char/width.ts&#45;&gt;src/char/shift.ts</title>
<path fill="none" stroke="#000000" stroke-width="2" stroke-opacity="0.200000" d="M201.93,-282C212.03,-282 223.71,-282 234.48,-282"/>
<polygon fill="#000000" fill-opacity="0.200000" stroke="#000000" stroke-width="2" stroke-opacity="0.200000" points="234.24,-284.1 240.24,-282 234.24,-279.9 234.24,-284.1"/>
</g>
<!-- src/chunk.ts -->
<g id="node18" class="node">
<title>src/chunk.ts</title>
<g id="a_node18"><a xlink:href="src/chunk.ts" xlink:title="no&#45;orphans">
<path fill="#ccffcc" stroke="blue" d="M88.5,-544C88.5,-544 46.5,-544 46.5,-544 43.5,-544 40.5,-541 40.5,-538 40.5,-538 40.5,-532 40.5,-532 40.5,-529 43.5,-526 46.5,-526 46.5,-526 88.5,-526 88.5,-526 91.5,-526 94.5,-529 94.5,-532 94.5,-532 94.5,-538 94.5,-538 94.5,-541 91.5,-544 88.5,-544"/>
<text text-anchor="start" x="50.5" y="-532.8" font-family="Helvetica,sans-Serif" font-size="9.00" fill="blue">chunk.ts</text>
</a>
</g>
</g>
<!-- src/chunkStr.ts -->
<g id="node19" class="node">
<title>src/chunkStr.ts</title>
<g id="a_node19"><a xlink:href="src/chunkStr.ts" xlink:title="chunkStr.ts">
<path fill="#ddfeff" stroke="black" d="M199.5,-1020C199.5,-1020 149.5,-1020 149.5,-1020 146.5,-1020 143.5,-1017 143.5,-1014 143.5,-1014 143.5,-1008 143.5,-1008 143.5,-1005 146.5,-1002 149.5,-1002 149.5,-1002 199.5,-1002 199.5,-1002 202.5,-1002 205.5,-1005 205.5,-1008 205.5,-1008 205.5,-1014 205.5,-1014 205.5,-1017 202.5,-1020 199.5,-1020"/>
<text text-anchor="start" x="151.5" y="-1008.8" font-family="Helvetica,sans-Serif" font-size="9.00">chunkStr.ts</text>
</a>
</g>
</g>
<!-- src/chunkStr.ts&#45;&gt;src/range.ts -->
<g id="edge7" class="edge">
<title>src/chunkStr.ts&#45;&gt;src/range.ts</title>
<path fill="none" stroke="#000000" stroke-width="2" stroke-opacity="0.200000" d="M205.76,-1011.64C214.87,-1011.84 224.95,-1012.05 234.35,-1012.25"/>
<polygon fill="#000000" fill-opacity="0.200000" stroke="#000000" stroke-width="2" stroke-opacity="0.200000" points="234.03,-1014.35 240.07,-1012.37 234.12,-1010.15 234.03,-1014.35"/>
</g>
<!-- src/clamp.ts -->
<g id="node20" class="node">
<title>src/clamp.ts</title>
<g id="a_node20"><a xlink:href="src/clamp.ts" xlink:title="clamp.ts">
<path fill="#ddfeff" stroke="black" d="M195.5,-214C195.5,-214 153.5,-214 153.5,-214 150.5,-214 147.5,-211 147.5,-208 147.5,-208 147.5,-202 147.5,-202 147.5,-199 150.5,-196 153.5,-196 153.5,-196 195.5,-196 195.5,-196 198.5,-196 201.5,-199 201.5,-202 201.5,-202 201.5,-208 201.5,-208 201.5,-211 198.5,-214 195.5,-214"/>
<text text-anchor="start" x="157.5" y="-202.8" font-family="Helvetica,sans-Serif" font-size="9.00">clamp.ts</text>
</a>
</g>
</g>
<!-- src/clean.ts -->
<g id="node21" class="node">
<title>src/clean.ts</title>
<g id="a_node21"><a xlink:href="src/clean.ts" xlink:title="no&#45;orphans">
<path fill="#ccffcc" stroke="blue" d="M88.5,-514C88.5,-514 46.5,-514 46.5,-514 43.5,-514 40.5,-511 40.5,-508 40.5,-508 40.5,-502 40.5,-502 40.5,-499 43.5,-496 46.5,-496 46.5,-496 88.5,-496 88.5,-496 91.5,-496 94.5,-499 94.5,-502 94.5,-502 94.5,-508 94.5,-508 94.5,-511 91.5,-514 88.5,-514"/>
<text text-anchor="start" x="51.5" y="-502.8" font-family="Helvetica,sans-Serif" font-size="9.00" fill="blue">clean.ts</text>
</a>
</g>
</g>
<!-- src/crypto.ts -->
<g id="node22" class="node">
<title>src/crypto.ts</title>
<g id="a_node22"><a xlink:href="src/crypto.ts" xlink:title="crypto.ts">
<path fill="#ddfeff" stroke="black" d="M291.5,-919C291.5,-919 249.5,-919 249.5,-919 246.5,-919 243.5,-916 243.5,-913 243.5,-913 243.5,-907 243.5,-907 243.5,-904 246.5,-901 249.5,-901 249.5,-901 291.5,-901 291.5,-901 294.5,-901 297.5,-904 297.5,-907 297.5,-907 297.5,-913 297.5,-913 297.5,-916 294.5,-919 291.5,-919"/>
<text text-anchor="start" x="253.5" y="-907.8" font-family="Helvetica,sans-Serif" font-size="9.00">crypto.ts</text>
</a>
</g>
</g>
<!-- src/format.ts -->
<g id="node23" class="node">
<title>src/format.ts</title>
<g id="a_node23"><a xlink:href="src/format.ts" xlink:title="format.ts">
<path fill="#ddfeff" stroke="black" d="M195.5,-638C195.5,-638 153.5,-638 153.5,-638 150.5,-638 147.5,-635 147.5,-632 147.5,-632 147.5,-626 147.5,-626 147.5,-623 150.5,-620 153.5,-620 153.5,-620 195.5,-620 195.5,-620 198.5,-620 201.5,-623 201.5,-626 201.5,-626 201.5,-632 201.5,-632 201.5,-635 198.5,-638 195.5,-638"/>
<text text-anchor="start" x="157" y="-626.8" font-family="Helvetica,sans-Serif" font-size="9.00">format.ts</text>
</a>
</g>
</g>
<!-- src/getEnv.ts -->
<g id="node24" class="node">
<title>src/getEnv.ts</title>
<g id="a_node24"><a xlink:href="src/getEnv.ts" xlink:title="no&#45;orphans">
<path fill="#ccffcc" stroke="blue" d="M88.5,-484C88.5,-484 46.5,-484 46.5,-484 43.5,-484 40.5,-481 40.5,-478 40.5,-478 40.5,-472 40.5,-472 40.5,-469 43.5,-466 46.5,-466 46.5,-466 88.5,-466 88.5,-466 91.5,-466 94.5,-469 94.5,-472 94.5,-472 94.5,-478 94.5,-478 94.5,-481 91.5,-484 88.5,-484"/>
<text text-anchor="start" x="48.5" y="-472.8" font-family="Helvetica,sans-Serif" font-size="9.00" fill="blue">getEnv.ts</text>
</a>
</g>
</g>
<!-- src/getOne.ts -->
<g id="node25" class="node">
<title>src/getOne.ts</title>
<g id="a_node25"><a xlink:href="src/getOne.ts" xlink:title="no&#45;orphans">
<path fill="#ccffcc" stroke="blue" d="M89.5,-454C89.5,-454 45.5,-454 45.5,-454 42.5,-454 39.5,-451 39.5,-448 39.5,-448 39.5,-442 39.5,-442 39.5,-439 42.5,-436 45.5,-436 45.5,-436 89.5,-436 89.5,-436 92.5,-436 95.5,-439 95.5,-442 95.5,-442 95.5,-448 95.5,-448 95.5,-451 92.5,-454 89.5,-454"/>
<text text-anchor="start" x="47.5" y="-442.8" font-family="Helvetica,sans-Serif" font-size="9.00" fill="blue">getOne.ts</text>
</a>
</g>
</g>
<!-- src/hash.ts -->
<g id="node26" class="node">
<title>src/hash.ts</title>
<g id="a_node26"><a xlink:href="src/hash.ts" xlink:title="hash.ts">
<path fill="#ddfeff" stroke="black" d="M195.5,-990C195.5,-990 153.5,-990 153.5,-990 150.5,-990 147.5,-987 147.5,-984 147.5,-984 147.5,-978 147.5,-978 147.5,-975 150.5,-972 153.5,-972 153.5,-972 195.5,-972 195.5,-972 198.5,-972 201.5,-975 201.5,-978 201.5,-978 201.5,-984 201.5,-984 201.5,-987 198.5,-990 195.5,-990"/>
<text text-anchor="start" x="159.5" y="-978.8" font-family="Helvetica,sans-Serif" font-size="9.00">hash.ts</text>
</a>
</g>
</g>
<!-- src/hash.ts&#45;&gt;src/crypto.ts -->
<g id="edge8" class="edge">
<title>src/hash.ts&#45;&gt;src/crypto.ts</title>
<path fill="none" stroke="#000000" stroke-width="2" stroke-opacity="0.200000" d="M201.97,-975.76C208.68,-973.7 215.65,-970.86 221.5,-967 237.42,-956.5 250.92,-939.19 259.51,-926.4"/>
<polygon fill="#000000" fill-opacity="0.200000" stroke="#000000" stroke-width="2" stroke-opacity="0.200000" points="261.08,-927.84 262.56,-921.66 257.55,-925.57 261.08,-927.84"/>
</g>
<!-- src/identity.ts -->
<g id="node27" class="node">
<title>src/identity.ts</title>
<g id="a_node27"><a xlink:href="src/identity.ts" xlink:title="no&#45;orphans">
<path fill="#ccffcc" stroke="blue" d="M89,-424C89,-424 46,-424 46,-424 43,-424 40,-421 40,-418 40,-418 40,-412 40,-412 40,-409 43,-406 46,-406 46,-406 89,-406 89,-406 92,-406 95,-409 95,-412 95,-412 95,-418 95,-418 95,-421 92,-424 89,-424"/>
<text text-anchor="start" x="48" y="-412.8" font-family="Helvetica,sans-Serif" font-size="9.00" fill="blue">identity.ts</text>
</a>
</g>
</g>
<!-- src/incstr.ts -->
<g id="node28" class="node">
<title>src/incstr.ts</title>
<g id="a_node28"><a xlink:href="src/incstr.ts" xlink:title="incstr.ts">
<path fill="#ddfeff" stroke="black" d="M88.5,-394C88.5,-394 46.5,-394 46.5,-394 43.5,-394 40.5,-391 40.5,-388 40.5,-388 40.5,-382 40.5,-382 40.5,-379 43.5,-376 46.5,-376 46.5,-376 88.5,-376 88.5,-376 91.5,-376 94.5,-379 94.5,-382 94.5,-382 94.5,-388 94.5,-388 94.5,-391 91.5,-394 88.5,-394"/>
<text text-anchor="start" x="52" y="-382.8" font-family="Helvetica,sans-Serif" font-size="9.00">incstr.ts</text>
</a>
</g>
</g>
<!-- src/incstr.ts&#45;&gt;src/char/constants.ts -->
<g id="edge9" class="edge">
<title>src/incstr.ts&#45;&gt;src/char/constants.ts</title>
<path fill="none" stroke="#000000" stroke-width="2" stroke-opacity="0.200000" d="M94.85,-381.01C103.19,-378.79 112.03,-375.34 119,-370 124.38,-365.87 121.66,-361.19 127,-357 129.2,-355.27 131.61,-353.74 134.13,-352.38"/>
<polygon fill="#000000" fill-opacity="0.200000" stroke="#000000" stroke-width="2" stroke-opacity="0.200000" points="134.62,-354.47 139.2,-350.07 132.87,-350.65 134.62,-354.47"/>
</g>
<!-- src/obj/invert.ts -->
<g id="node29" class="node">
<title>src/obj/invert.ts</title>
<g id="a_node29"><a xlink:href="src/obj/invert.ts" xlink:title="invert.ts">
<path fill="#ddfeff" stroke="black" d="M291.5,-651C291.5,-651 249.5,-651 249.5,-651 246.5,-651 243.5,-648 243.5,-645 243.5,-645 243.5,-639 243.5,-639 243.5,-636 246.5,-633 249.5,-633 249.5,-633 291.5,-633 291.5,-633 294.5,-633 297.5,-636 297.5,-639 297.5,-639 297.5,-645 297.5,-645 297.5,-648 294.5,-651 291.5,-651"/>
<text text-anchor="start" x="254.5" y="-639.8" font-family="Helvetica,sans-Serif" font-size="9.00">invert.ts</text>
</a>
</g>
</g>
<!-- src/incstr.ts&#45;&gt;src/obj/invert.ts -->
<g id="edge10" class="edge">
<title>src/incstr.ts&#45;&gt;src/obj/invert.ts</title>
<path fill="none" stroke="#000000" stroke-width="2" stroke-opacity="0.200000" d="M94.77,-387.33C103.6,-389.4 112.77,-393.18 119,-400 131.22,-413.39 113.8,-427.58 127,-440 157.87,-469.05 192.91,-421.69 221.5,-453 234.55,-467.29 218.11,-611.35 229.5,-627 231.2,-629.34 233.31,-631.31 235.67,-632.98"/>
<polygon fill="#000000" fill-opacity="0.200000" stroke="#000000" stroke-width="2" stroke-opacity="0.200000" points="234.37,-634.67 240.65,-635.67 236.37,-630.97 234.37,-634.67"/>
</g>
<!-- src/radix.ts -->
<g id="node30" class="node">
<title>src/radix.ts</title>
<g id="a_node30"><a xlink:href="src/radix.ts" xlink:title="radix.ts">
<path fill="#ddfeff" stroke="black" d="M195.5,-477C195.5,-477 153.5,-477 153.5,-477 150.5,-477 147.5,-474 147.5,-471 147.5,-471 147.5,-465 147.5,-465 147.5,-462 150.5,-459 153.5,-459 153.5,-459 195.5,-459 195.5,-459 198.5,-459 201.5,-462 201.5,-465 201.5,-465 201.5,-471 201.5,-471 201.5,-474 198.5,-477 195.5,-477"/>
<text text-anchor="start" x="159.5" y="-465.8" font-family="Helvetica,sans-Serif" font-size="9.00">radix.ts</text>
</a>
</g>
</g>
<!-- src/incstr.ts&#45;&gt;src/radix.ts -->
<g id="edge11" class="edge">
<title>src/incstr.ts&#45;&gt;src/radix.ts</title>
<path fill="none" stroke="#000000" stroke-width="2" stroke-opacity="0.200000" d="M94.92,-387.2C103.76,-389.26 112.91,-393.06 119,-400 133.85,-416.91 112.85,-432.5 127,-450 130.28,-454.05 134.59,-457.2 139.26,-459.63"/>
<polygon fill="#000000" fill-opacity="0.200000" stroke="#000000" stroke-width="2" stroke-opacity="0.200000" points="138.23,-461.47 144.57,-461.91 139.88,-457.61 138.23,-461.47"/>
</g>
<!-- src/makeToggle.ts -->
<g id="node31" class="node">
<title>src/makeToggle.ts</title>
<g id="a_node31"><a xlink:href="src/makeToggle.ts" xlink:title="no&#45;orphans">
<path fill="#ccffcc" stroke="blue" d="M99.5,-364C99.5,-364 35.5,-364 35.5,-364 32.5,-364 29.5,-361 29.5,-358 29.5,-358 29.5,-352 29.5,-352 29.5,-349 32.5,-346 35.5,-346 35.5,-346 99.5,-346 99.5,-346 102.5,-346 105.5,-349 105.5,-352 105.5,-352 105.5,-358 105.5,-358 105.5,-361 102.5,-364 99.5,-364"/>
<text text-anchor="start" x="37.5" y="-352.8" font-family="Helvetica,sans-Serif" font-size="9.00" fill="blue">makeToggle.ts</text>
</a>
</g>
</g>
<!-- src/maxBy.ts -->
<g id="node32" class="node">
<title>src/maxBy.ts</title>
<g id="a_node32"><a xlink:href="src/maxBy.ts" xlink:title="no&#45;orphans">
<path fill="#ccffcc" stroke="blue" d="M88.5,-334C88.5,-334 46.5,-334 46.5,-334 43.5,-334 40.5,-331 40.5,-328 40.5,-328 40.5,-322 40.5,-322 40.5,-319 43.5,-316 46.5,-316 46.5,-316 88.5,-316 88.5,-316 91.5,-316 94.5,-319 94.5,-322 94.5,-322 94.5,-328 94.5,-328 94.5,-331 91.5,-334 88.5,-334"/>
<text text-anchor="start" x="49" y="-322.8" font-family="Helvetica,sans-Serif" font-size="9.00" fill="blue">maxBy.ts</text>
</a>
</g>
</g>
<!-- src/niche/anyHashMatch.ts -->
<g id="node33" class="node">
<title>src/niche/anyHashMatch.ts</title>
<g id="a_node33"><a xlink:href="src/niche/anyHashMatch.ts" xlink:title="anyHashMatch.ts">
<path fill="#ddfeff" stroke="black" d="M105,-1028C105,-1028 30,-1028 30,-1028 27,-1028 24,-1025 24,-1022 24,-1022 24,-1016 24,-1016 24,-1013 27,-1010 30,-1010 30,-1010 105,-1010 105,-1010 108,-1010 111,-1013 111,-1016 111,-1016 111,-1022 111,-1022 111,-1025 108,-1028 105,-1028"/>
<text text-anchor="start" x="32" y="-1016.8" font-family="Helvetica,sans-Serif" font-size="9.00">anyHashMatch.ts</text>
</a>
</g>
</g>
<!-- src/niche/anyHashMatch.ts&#45;&gt;src/chunkStr.ts -->
<g id="edge12" class="edge">
<title>src/niche/anyHashMatch.ts&#45;&gt;src/chunkStr.ts</title>
<path fill="none" stroke="#000000" stroke-width="2" stroke-opacity="0.200000" d="M111.21,-1015.75C118.88,-1015.16 126.84,-1014.55 134.4,-1013.98"/>
<polygon fill="#000000" fill-opacity="0.200000" stroke="#000000" stroke-width="2" stroke-opacity="0.200000" points="134.22,-1016.1 140.04,-1013.55 133.9,-1011.91 134.22,-1016.1"/>
</g>
<!-- src/niche/anyHashMatch.ts&#45;&gt;src/hash.ts -->
<g id="edge13" class="edge">
<title>src/niche/anyHashMatch.ts&#45;&gt;src/hash.ts</title>
<path fill="none" stroke="#000000" stroke-width="2" stroke-opacity="0.200000" d="M107.66,-1009.52C111.61,-1007.93 115.46,-1006.11 119,-1004 123.32,-1001.43 122.71,-998.62 127,-996 130.79,-993.68 134.98,-991.68 139.24,-989.97"/>
<polygon fill="#000000" fill-opacity="0.200000" stroke="#000000" stroke-width="2" stroke-opacity="0.200000" points="139.67,-992.05 144.6,-988.05 138.25,-988.1 139.67,-992.05"/>
</g>
<!-- src/niche/buffer.ts -->
<g id="node34" class="node">
<title>src/niche/buffer.ts</title>
<g id="a_node34"><a xlink:href="src/niche/buffer.ts" xlink:title="no&#45;orphans">
<path fill="#ccffcc" stroke="blue" d="M88.5,-998C88.5,-998 46.5,-998 46.5,-998 43.5,-998 40.5,-995 40.5,-992 40.5,-992 40.5,-986 40.5,-986 40.5,-983 43.5,-980 46.5,-980 46.5,-980 88.5,-980 88.5,-980 91.5,-980 94.5,-983 94.5,-986 94.5,-986 94.5,-992 94.5,-992 94.5,-995 91.5,-998 88.5,-998"/>
<text text-anchor="start" x="51" y="-986.8" font-family="Helvetica,sans-Serif" font-size="9.00" fill="blue">buffer.ts</text>
</a>
</g>
</g>
<!-- src/noop.ts -->
<g id="node35" class="node">
<title>src/noop.ts</title>
<g id="a_node35"><a xlink:href="src/noop.ts" xlink:title="no&#45;orphans">
<path fill="#ccffcc" stroke="blue" d="M88.5,-304C88.5,-304 46.5,-304 46.5,-304 43.5,-304 40.5,-301 40.5,-298 40.5,-298 40.5,-292 40.5,-292 40.5,-289 43.5,-286 46.5,-286 46.5,-286 88.5,-286 88.5,-286 91.5,-286 94.5,-289 94.5,-292 94.5,-292 94.5,-298 94.5,-298 94.5,-301 91.5,-304 88.5,-304"/>
<text text-anchor="start" x="52" y="-292.8" font-family="Helvetica,sans-Serif" font-size="9.00" fill="blue">noop.ts</text>
</a>
</g>
</g>
<!-- src/obj/countup.ts -->
<g id="node36" class="node">
<title>src/obj/countup.ts</title>
<g id="a_node36"><a xlink:href="src/obj/countup.ts" xlink:title="no&#45;orphans">
<path fill="#ccffcc" stroke="blue" d="M294,-621C294,-621 247,-621 247,-621 244,-621 241,-618 241,-615 241,-615 241,-609 241,-609 241,-606 244,-603 247,-603 247,-603 294,-603 294,-603 297,-603 300,-606 300,-609 300,-609 300,-615 300,-615 300,-618 297,-621 294,-621"/>
<text text-anchor="start" x="249" y="-609.8" font-family="Helvetica,sans-Serif" font-size="9.00" fill="blue">countup.ts</text>
</a>
</g>
</g>
<!-- src/obj/groupBy.ts -->
<g id="node37" class="node">
<title>src/obj/groupBy.ts</title>
<g id="a_node37"><a xlink:href="src/obj/groupBy.ts" xlink:title="no&#45;orphans">
<path fill="#ccffcc" stroke="blue" d="M294.5,-591C294.5,-591 246.5,-591 246.5,-591 243.5,-591 240.5,-588 240.5,-585 240.5,-585 240.5,-579 240.5,-579 240.5,-576 243.5,-573 246.5,-573 246.5,-573 294.5,-573 294.5,-573 297.5,-573 300.5,-576 300.5,-579 300.5,-579 300.5,-585 300.5,-585 300.5,-588 297.5,-591 294.5,-591"/>
<text text-anchor="start" x="248.5" y="-579.8" font-family="Helvetica,sans-Serif" font-size="9.00" fill="blue">groupBy.ts</text>
</a>
</g>
</g>
<!-- src/obj/idfy.ts -->
<g id="node38" class="node">
<title>src/obj/idfy.ts</title>
<g id="a_node38"><a xlink:href="src/obj/idfy.ts" xlink:title="no&#45;orphans">
<path fill="#ccffcc" stroke="blue" d="M291.5,-561C291.5,-561 249.5,-561 249.5,-561 246.5,-561 243.5,-558 243.5,-555 243.5,-555 243.5,-549 243.5,-549 243.5,-546 246.5,-543 249.5,-543 249.5,-543 291.5,-543 291.5,-543 294.5,-543 297.5,-546 297.5,-549 297.5,-549 297.5,-555 297.5,-555 297.5,-558 294.5,-561 291.5,-561"/>
<text text-anchor="start" x="258.5" y="-549.8" font-family="Helvetica,sans-Serif" font-size="9.00" fill="blue">idfy.ts</text>
</a>
</g>
</g>
<!-- src/obj/makeMap.ts -->
<g id="node39" class="node">
<title>src/obj/makeMap.ts</title>
<g id="a_node39"><a xlink:href="src/obj/makeMap.ts" xlink:title="no&#45;orphans">
<path fill="#ccffcc" stroke="blue" d="M297.5,-531C297.5,-531 243.5,-531 243.5,-531 240.5,-531 237.5,-528 237.5,-525 237.5,-525 237.5,-519 237.5,-519 237.5,-516 240.5,-513 243.5,-513 243.5,-513 297.5,-513 297.5,-513 300.5,-513 303.5,-516 303.5,-519 303.5,-519 303.5,-525 303.5,-525 303.5,-528 300.5,-531 297.5,-531"/>
<text text-anchor="start" x="245.5" y="-519.8" font-family="Helvetica,sans-Serif" font-size="9.00" fill="blue">makeMap.ts</text>
</a>
</g>
</g>
<!-- src/obj/makeObj.ts -->
<g id="node40" class="node">
<title>src/obj/makeObj.ts</title>
<g id="a_node40"><a xlink:href="src/obj/makeObj.ts" xlink:title="no&#45;orphans">
<path fill="#ccffcc" stroke="blue" d="M295.5,-501C295.5,-501 245.5,-501 245.5,-501 242.5,-501 239.5,-498 239.5,-495 239.5,-495 239.5,-489 239.5,-489 239.5,-486 242.5,-483 245.5,-483 245.5,-483 295.5,-483 295.5,-483 298.5,-483 301.5,-486 301.5,-489 301.5,-489 301.5,-495 301.5,-495 301.5,-498 298.5,-501 295.5,-501"/>
<text text-anchor="start" x="247.5" y="-489.8" font-family="Helvetica,sans-Serif" font-size="9.00" fill="blue">makeObj.ts</text>
</a>
</g>
</g>
<!-- src/obj/upsert.ts -->
<g id="node41" class="node">
<title>src/obj/upsert.ts</title>
<g id="a_node41"><a xlink:href="src/obj/upsert.ts" xlink:title="no&#45;orphans">
<path fill="#ccffcc" stroke="blue" d="M291.5,-471C291.5,-471 249.5,-471 249.5,-471 246.5,-471 243.5,-468 243.5,-465 243.5,-465 243.5,-459 243.5,-459 243.5,-456 246.5,-453 249.5,-453 249.5,-453 291.5,-453 291.5,-453 294.5,-453 297.5,-456 297.5,-459 297.5,-459 297.5,-465 297.5,-465 297.5,-468 294.5,-471 291.5,-471"/>
<text text-anchor="start" x="253" y="-459.8" font-family="Helvetica,sans-Serif" font-size="9.00" fill="blue">upsert.ts</text>
</a>
</g>
</g>
<!-- src/performance.ts -->
<g id="node42" class="node">
<title>src/performance.ts</title>
<g id="a_node42"><a xlink:href="src/performance.ts" xlink:title="no&#45;orphans">
<path fill="#ccffcc" stroke="blue" d="M100,-274C100,-274 35,-274 35,-274 32,-274 29,-271 29,-268 29,-268 29,-262 29,-262 29,-259 32,-256 35,-256 35,-256 100,-256 100,-256 103,-256 106,-259 106,-262 106,-262 106,-268 106,-268 106,-271 103,-274 100,-274"/>
<text text-anchor="start" x="37" y="-262.8" font-family="Helvetica,sans-Serif" font-size="9.00" fill="blue">performance.ts</text>
</a>
</g>
</g>
<!-- src/pickUrl.ts -->
<g id="node43" class="node">
<title>src/pickUrl.ts</title>
<g id="a_node43"><a xlink:href="src/pickUrl.ts" xlink:title="no&#45;orphans">
<path fill="#ccffcc" stroke="blue" d="M88.5,-244C88.5,-244 46.5,-244 46.5,-244 43.5,-244 40.5,-241 40.5,-238 40.5,-238 40.5,-232 40.5,-232 40.5,-229 43.5,-226 46.5,-226 46.5,-226 88.5,-226 88.5,-226 91.5,-226 94.5,-229 94.5,-232 94.5,-232 94.5,-238 94.5,-238 94.5,-241 91.5,-244 88.5,-244"/>
<text text-anchor="start" x="48.5" y="-232.8" font-family="Helvetica,sans-Serif" font-size="9.00" fill="blue">pickUrl.ts</text>
</a>
</g>
</g>
<!-- src/rand/choise.ts -->
<g id="node44" class="node">
<title>src/rand/choise.ts</title>
<g id="a_node44"><a xlink:href="src/rand/choise.ts" xlink:title="choise.ts">
<path fill="#ddfeff" stroke="black" d="M195.5,-818C195.5,-818 153.5,-818 153.5,-818 150.5,-818 147.5,-815 147.5,-812 147.5,-812 147.5,-806 147.5,-806 147.5,-803 150.5,-800 153.5,-800 153.5,-800 195.5,-800 195.5,-800 198.5,-800 201.5,-803 201.5,-806 201.5,-806 201.5,-812 201.5,-812 201.5,-815 198.5,-818 195.5,-818"/>
<text text-anchor="start" x="156" y="-806.8" font-family="Helvetica,sans-Serif" font-size="9.00">choise.ts</text>
</a>
</g>
</g>
<!-- src/rand/make.ts -->
<g id="node45" class="node">
<title>src/rand/make.ts</title>
<g id="a_node45"><a xlink:href="src/rand/make.ts" xlink:title="make.ts">
<path fill="#ddfeff" stroke="black" d="M195.5,-848C195.5,-848 153.5,-848 153.5,-848 150.5,-848 147.5,-845 147.5,-842 147.5,-842 147.5,-836 147.5,-836 147.5,-833 150.5,-830 153.5,-830 153.5,-830 195.5,-830 195.5,-830 198.5,-830 201.5,-833 201.5,-836 201.5,-836 201.5,-842 201.5,-842 201.5,-845 198.5,-848 195.5,-848"/>
<text text-anchor="start" x="158.5" y="-836.8" font-family="Helvetica,sans-Serif" font-size="9.00">make.ts</text>
</a>
</g>
</g>
<!-- src/rand/make.ts&#45;&gt;src/crypto.ts -->
<g id="edge14" class="edge">
<title>src/rand/make.ts&#45;&gt;src/crypto.ts</title>
<path fill="none" stroke="#000000" stroke-width="2" stroke-opacity="0.200000" d="M201.95,-844.91C208.66,-847.12 215.63,-850.08 221.5,-854 236.88,-864.27 250.17,-880.76 258.85,-893.2"/>
<polygon fill="#000000" fill-opacity="0.200000" stroke="#000000" stroke-width="2" stroke-opacity="0.200000" points="257.09,-894.35 262.17,-898.16 260.58,-892.01 257.09,-894.35"/>
</g>
<!-- src/rand/range.ts -->
<g id="node46" class="node">
<title>src/rand/range.ts</title>
<g id="a_node46"><a xlink:href="src/rand/range.ts" xlink:title="range.ts">
<path fill="#ddfeff" stroke="black" d="M195.5,-878C195.5,-878 153.5,-878 153.5,-878 150.5,-878 147.5,-875 147.5,-872 147.5,-872 147.5,-866 147.5,-866 147.5,-863 150.5,-860 153.5,-860 153.5,-860 195.5,-860 195.5,-860 198.5,-860 201.5,-863 201.5,-866 201.5,-866 201.5,-872 201.5,-872 201.5,-875 198.5,-878 195.5,-878"/>
<text text-anchor="start" x="157.5" y="-866.8" font-family="Helvetica,sans-Serif" font-size="9.00">range.ts</text>
</a>
</g>
</g>
<!-- src/rand/sample.ts -->
<g id="node47" class="node">
<title>src/rand/sample.ts</title>
<g id="a_node47"><a xlink:href="src/rand/sample.ts" xlink:title="sample.ts">
<path fill="#ddfeff" stroke="black" d="M196.5,-908C196.5,-908 152.5,-908 152.5,-908 149.5,-908 146.5,-905 146.5,-902 146.5,-902 146.5,-896 146.5,-896 146.5,-893 149.5,-890 152.5,-890 152.5,-890 196.5,-890 196.5,-890 199.5,-890 202.5,-893 202.5,-896 202.5,-896 202.5,-902 202.5,-902 202.5,-905 199.5,-908 196.5,-908"/>
<text text-anchor="start" x="154.5" y="-896.8" font-family="Helvetica,sans-Serif" font-size="9.00">sample.ts</text>
</a>
</g>
</g>
<!-- src/rand/seed.ts -->
<g id="node48" class="node">
<title>src/rand/seed.ts</title>
<g id="a_node48"><a xlink:href="src/rand/seed.ts" xlink:title="seed.ts">
<path fill="#ddfeff" stroke="black" d="M88.5,-878C88.5,-878 46.5,-878 46.5,-878 43.5,-878 40.5,-875 40.5,-872 40.5,-872 40.5,-866 40.5,-866 40.5,-863 43.5,-860 46.5,-860 46.5,-860 88.5,-860 88.5,-860 91.5,-860 94.5,-863 94.5,-866 94.5,-866 94.5,-872 94.5,-872 94.5,-875 91.5,-878 88.5,-878"/>
<text text-anchor="start" x="52.5" y="-866.8" font-family="Helvetica,sans-Serif" font-size="9.00">seed.ts</text>
</a>
</g>
</g>
<!-- src/rand/seed.ts&#45;&gt;src/rand/choise.ts -->
<g id="edge15" class="edge">
<title>src/rand/seed.ts&#45;&gt;src/rand/choise.ts</title>
<path fill="none" stroke="#000000" stroke-width="2" stroke-opacity="0.200000" d="M78.53,-859.53C89.62,-849.49 108.4,-833.78 127,-824 130.74,-822.03 134.8,-820.26 138.89,-818.69"/>
<polygon fill="#000000" fill-opacity="0.200000" stroke="#000000" stroke-width="2" stroke-opacity="0.200000" points="139.46,-820.71 144.42,-816.73 138.06,-816.75 139.46,-820.71"/>
</g>
<!-- src/rand/seed.ts&#45;&gt;src/rand/make.ts -->
<g id="edge16" class="edge">
<title>src/rand/seed.ts&#45;&gt;src/rand/make.ts</title>
<path fill="none" stroke="#000000" stroke-width="2" stroke-opacity="0.200000" d="M95,-861.43C108.18,-857.66 124.28,-853.06 138.47,-849.01"/>
<polygon fill="#000000" fill-opacity="0.200000" stroke="#000000" stroke-width="2" stroke-opacity="0.200000" points="138.91,-851.07 144.1,-847.4 137.76,-847.03 138.91,-851.07"/>
</g>
<!-- src/rand/seed.ts&#45;&gt;src/rand/range.ts -->
<g id="edge17" class="edge">
<title>src/rand/seed.ts&#45;&gt;src/rand/range.ts</title>
<path fill="none" stroke="#000000" stroke-width="2" stroke-opacity="0.200000" d="M95,-869C108.05,-869 123.98,-869 138.07,-869"/>
<polygon fill="#000000" fill-opacity="0.200000" stroke="#000000" stroke-width="2" stroke-opacity="0.200000" points="137.99,-871.1 143.99,-869 137.99,-866.9 137.99,-871.1"/>
</g>
<!-- src/rand/seed.ts&#45;&gt;src/rand/sample.ts -->
<g id="edge18" class="edge">
<title>src/rand/seed.ts&#45;&gt;src/rand/sample.ts</title>
<path fill="none" stroke="#000000" stroke-width="2" stroke-opacity="0.200000" d="M95,-876.57C107.98,-880.28 123.79,-884.8 137.82,-888.81"/>
<polygon fill="#000000" fill-opacity="0.200000" stroke="#000000" stroke-width="2" stroke-opacity="0.200000" points="137.02,-890.76 143.37,-890.39 138.18,-886.72 137.02,-890.76"/>
</g>
<!-- src/rand/shuffle.ts -->
<g id="node49" class="node">
<title>src/rand/shuffle.ts</title>
<g id="a_node49"><a xlink:href="src/rand/shuffle.ts" xlink:title="shuffle.ts">
<path fill="#ddfeff" stroke="black" d="M195.5,-938C195.5,-938 153.5,-938 153.5,-938 150.5,-938 147.5,-935 147.5,-932 147.5,-932 147.5,-926 147.5,-926 147.5,-923 150.5,-920 153.5,-920 153.5,-920 195.5,-920 195.5,-920 198.5,-920 201.5,-923 201.5,-926 201.5,-926 201.5,-932 201.5,-932 201.5,-935 198.5,-938 195.5,-938"/>
<text text-anchor="start" x="156" y="-926.8" font-family="Helvetica,sans-Serif" font-size="9.00">shuffle.ts</text>
</a>
</g>
</g>
<!-- src/rand/seed.ts&#45;&gt;src/rand/shuffle.ts -->
<g id="edge19" class="edge">
<title>src/rand/seed.ts&#45;&gt;src/rand/shuffle.ts</title>
<path fill="none" stroke="#000000" stroke-width="2" stroke-opacity="0.200000" d="M78.53,-878.47C89.62,-888.51 108.4,-904.22 127,-914 130.74,-915.97 134.8,-917.74 138.89,-919.31"/>
<polygon fill="#000000" fill-opacity="0.200000" stroke="#000000" stroke-width="2" stroke-opacity="0.200000" points="138.06,-921.25 144.42,-921.27 139.46,-917.29 138.06,-921.25"/>
</g>
<!-- src/rangeAdv.ts -->
<g id="node50" class="node">
<title>src/rangeAdv.ts</title>
<g id="a_node50"><a xlink:href="src/rangeAdv.ts" xlink:title="rangeAdv.ts">
<path fill="#ddfeff" stroke="black" d="M94,-214C94,-214 41,-214 41,-214 38,-214 35,-211 35,-208 35,-208 35,-202 35,-202 35,-199 38,-196 41,-196 41,-196 94,-196 94,-196 97,-196 100,-199 100,-202 100,-202 100,-208 100,-208 100,-211 97,-214 94,-214"/>
<text text-anchor="start" x="43" y="-202.8" font-family="Helvetica,sans-Serif" font-size="9.00">rangeAdv.ts</text>
</a>
</g>
</g>
<!-- src/rangeAdv.ts&#45;&gt;src/clamp.ts -->
<g id="edge20" class="edge">
<title>src/rangeAdv.ts&#45;&gt;src/clamp.ts</title>
<path fill="none" stroke="#000000" stroke-width="2" stroke-opacity="0.200000" d="M100.29,-205C112.33,-205 126.11,-205 138.44,-205"/>
<polygon fill="#000000" fill-opacity="0.200000" stroke="#000000" stroke-width="2" stroke-opacity="0.200000" points="138.09,-207.1 144.09,-205 138.09,-202.9 138.09,-207.1"/>
</g>
<!-- src/regpick.ts -->
<g id="node51" class="node">
<title>src/regpick.ts</title>
<g id="a_node51"><a xlink:href="src/regpick.ts" xlink:title="no&#45;orphans">
<path fill="#ccffcc" stroke="blue" d="M89.5,-184C89.5,-184 45.5,-184 45.5,-184 42.5,-184 39.5,-181 39.5,-178 39.5,-178 39.5,-172 39.5,-172 39.5,-169 42.5,-166 45.5,-166 45.5,-166 89.5,-166 89.5,-166 92.5,-166 95.5,-169 95.5,-172 95.5,-172 95.5,-178 95.5,-178 95.5,-181 92.5,-184 89.5,-184"/>
<text text-anchor="start" x="47.5" y="-172.8" font-family="Helvetica,sans-Serif" font-size="9.00" fill="blue">regpick.ts</text>
</a>
</g>
</g>
<!-- src/sortBy.ts -->
<g id="node52" class="node">
<title>src/sortBy.ts</title>
<g id="a_node52"><a xlink:href="src/sortBy.ts" xlink:title="no&#45;orphans">
<path fill="#ccffcc" stroke="blue" d="M88.5,-154C88.5,-154 46.5,-154 46.5,-154 43.5,-154 40.5,-151 40.5,-148 40.5,-148 40.5,-142 40.5,-142 40.5,-139 43.5,-136 46.5,-136 46.5,-136 88.5,-136 88.5,-136 91.5,-136 94.5,-139 94.5,-142 94.5,-142 94.5,-148 94.5,-148 94.5,-151 91.5,-154 88.5,-154"/>
<text text-anchor="start" x="50" y="-142.8" font-family="Helvetica,sans-Serif" font-size="9.00" fill="blue">sortBy.ts</text>
</a>
</g>
</g>
<!-- src/stringify.ts -->
<g id="node53" class="node">
<title>src/stringify.ts</title>
<g id="a_node53"><a xlink:href="src/stringify.ts" xlink:title="no&#45;orphans">
<path fill="#ccffcc" stroke="blue" d="M90,-124C90,-124 45,-124 45,-124 42,-124 39,-121 39,-118 39,-118 39,-112 39,-112 39,-109 42,-106 45,-106 45,-106 90,-106 90,-106 93,-106 96,-109 96,-112 96,-112 96,-118 96,-118 96,-121 93,-124 90,-124"/>
<text text-anchor="start" x="47" y="-112.8" font-family="Helvetica,sans-Serif" font-size="9.00" fill="blue">stringify.ts</text>
</a>
</g>
</g>
<!-- src/template/slack.ts -->
<g id="node54" class="node">
<title>src/template/slack.ts</title>
<g id="a_node54"><a xlink:href="src/template/slack.ts" xlink:title="no&#45;orphans">
<path fill="#ccffcc" stroke="blue" d="M88.5,-758C88.5,-758 46.5,-758 46.5,-758 43.5,-758 40.5,-755 40.5,-752 40.5,-752 40.5,-746 40.5,-746 40.5,-743 43.5,-740 46.5,-740 46.5,-740 88.5,-740 88.5,-740 91.5,-740 94.5,-743 94.5,-746 94.5,-746 94.5,-752 94.5,-752 94.5,-755 91.5,-758 88.5,-758"/>
<text text-anchor="start" x="52" y="-746.8" font-family="Helvetica,sans-Serif" font-size="9.00" fill="blue">slack.ts</text>
</a>
</g>
</g>
<!-- src/template/terms.ts -->
<g id="node55" class="node">
<title>src/template/terms.ts</title>
<g id="a_node55"><a xlink:href="src/template/terms.ts" xlink:title="no&#45;orphans">
<path fill="#ccffcc" stroke="blue" d="M88.5,-728C88.5,-728 46.5,-728 46.5,-728 43.5,-728 40.5,-725 40.5,-722 40.5,-722 40.5,-716 40.5,-716 40.5,-713 43.5,-710 46.5,-710 46.5,-710 88.5,-710 88.5,-710 91.5,-710 94.5,-713 94.5,-716 94.5,-716 94.5,-722 94.5,-722 94.5,-725 91.5,-728 88.5,-728"/>
<text text-anchor="start" x="51.5" y="-716.8" font-family="Helvetica,sans-Serif" font-size="9.00" fill="blue">terms.ts</text>
</a>
</g>
</g>
<!-- src/template/url.ts -->
<g id="node56" class="node">
<title>src/template/url.ts</title>
<g id="a_node56"><a xlink:href="src/template/url.ts" xlink:title="no&#45;orphans">
<path fill="#ccffcc" stroke="blue" d="M88.5,-698C88.5,-698 46.5,-698 46.5,-698 43.5,-698 40.5,-695 40.5,-692 40.5,-692 40.5,-686 40.5,-686 40.5,-683 43.5,-680 46.5,-680 46.5,-680 88.5,-680 88.5,-680 91.5,-680 94.5,-683 94.5,-686 94.5,-686 94.5,-692 94.5,-692 94.5,-695 91.5,-698 88.5,-698"/>
<text text-anchor="start" x="57.5" y="-686.8" font-family="Helvetica,sans-Serif" font-size="9.00" fill="blue">url.ts</text>
</a>
</g>
</g>
<!-- src/time/format.ts -->
<g id="node57" class="node">
<title>src/time/format.ts</title>
<g id="a_node57"><a xlink:href="src/time/format.ts" xlink:title="format.ts">
<path fill="#ddfeff" stroke="black" d="M88.5,-638C88.5,-638 46.5,-638 46.5,-638 43.5,-638 40.5,-635 40.5,-632 40.5,-632 40.5,-626 40.5,-626 40.5,-623 43.5,-620 46.5,-620 46.5,-620 88.5,-620 88.5,-620 91.5,-620 94.5,-623 94.5,-626 94.5,-626 94.5,-632 94.5,-632 94.5,-635 91.5,-638 88.5,-638"/>
<text text-anchor="start" x="50" y="-626.8" font-family="Helvetica,sans-Serif" font-size="9.00">format.ts</text>
</a>
</g>
</g>
<!-- src/time/format.ts&#45;&gt;src/format.ts -->
<g id="edge21" class="edge">
<title>src/time/format.ts&#45;&gt;src/format.ts</title>
<path fill="none" stroke="#000000" stroke-width="2" stroke-opacity="0.200000" d="M95,-629C108.05,-629 123.98,-629 138.07,-629"/>
<polygon fill="#000000" fill-opacity="0.200000" stroke="#000000" stroke-width="2" stroke-opacity="0.200000" points="137.99,-631.1 143.99,-629 137.99,-626.9 137.99,-631.1"/>
</g>
<!-- src/time/utils.ts -->
<g id="node58" class="node">
<title>src/time/utils.ts</title>
<g id="a_node58"><a xlink:href="src/time/utils.ts" xlink:title="no&#45;orphans">
<path fill="#ccffcc" stroke="blue" d="M88.5,-608C88.5,-608 46.5,-608 46.5,-608 43.5,-608 40.5,-605 40.5,-602 40.5,-602 40.5,-596 40.5,-596 40.5,-593 43.5,-590 46.5,-590 46.5,-590 88.5,-590 88.5,-590 91.5,-590 94.5,-593 94.5,-596 94.5,-596 94.5,-602 94.5,-602 94.5,-605 91.5,-608 88.5,-608"/>
<text text-anchor="start" x="54.5" y="-596.8" font-family="Helvetica,sans-Serif" font-size="9.00" fill="blue">utils.ts</text>
</a>
</g>
</g>
<!-- src/transpose.ts -->
<g id="node59" class="node">
<title>src/transpose.ts</title>
<g id="a_node59"><a xlink:href="src/transpose.ts" xlink:title="no&#45;orphans">
<path fill="#ccffcc" stroke="blue" d="M94.5,-94C94.5,-94 40.5,-94 40.5,-94 37.5,-94 34.5,-91 34.5,-88 34.5,-88 34.5,-82 34.5,-82 34.5,-79 37.5,-76 40.5,-76 40.5,-76 94.5,-76 94.5,-76 97.5,-76 100.5,-79 100.5,-82 100.5,-82 100.5,-88 100.5,-88 100.5,-91 97.5,-94 94.5,-94"/>
<text text-anchor="start" x="42.5" y="-82.8" font-family="Helvetica,sans-Serif" font-size="9.00" fill="blue">transpose.ts</text>
</a>
</g>
</g>
<!-- src/trim.ts -->
<g id="node60" class="node">
<title>src/trim.ts</title>
<g id="a_node60"><a xlink:href="src/trim.ts" xlink:title="no&#45;orphans">
<path fill="#ccffcc" stroke="blue" d="M88.5,-64C88.5,-64 46.5,-64 46.5,-64 43.5,-64 40.5,-61 40.5,-58 40.5,-58 40.5,-52 40.5,-52 40.5,-49 43.5,-46 46.5,-46 46.5,-46 88.5,-46 88.5,-46 91.5,-46 94.5,-49 94.5,-52 94.5,-52 94.5,-58 94.5,-58 94.5,-61 91.5,-64 88.5,-64"/>
<text text-anchor="start" x="55" y="-52.8" font-family="Helvetica,sans-Serif" font-size="9.00" fill="blue">trim.ts</text>
</a>
</g>
</g>
<!-- src/uniq.ts -->
<g id="node61" class="node">
<title>src/uniq.ts</title>
<g id="a_node61"><a xlink:href="src/uniq.ts" xlink:title="no&#45;orphans">
<path fill="#ccffcc" stroke="blue" d="M88.5,-34C88.5,-34 46.5,-34 46.5,-34 43.5,-34 40.5,-31 40.5,-28 40.5,-28 40.5,-22 40.5,-22 40.5,-19 43.5,-16 46.5,-16 46.5,-16 88.5,-16 88.5,-16 91.5,-16 94.5,-19 94.5,-22 94.5,-22 94.5,-28 94.5,-28 94.5,-31 91.5,-34 88.5,-34"/>
<text text-anchor="start" x="53.5" y="-22.8" font-family="Helvetica,sans-Serif" font-size="9.00" fill="blue">uniq.ts</text>
</a>
</g>
</g>
</g>
</svg>
